<?xml version="1.0" standalone="no"?>
<!DOCTYPE svg PUBLIC "-//W3C//DTD SVG 20010904//EN"
 "http://www.w3.org/TR/2001/REC-SVG-20010904/DTD/svg10.dtd">
<svg version="1.0" xmlns="http://www.w3.org/2000/svg"
 width="700.000000pt" height="700.000000pt" viewBox="0 0 700.000000 700.000000"
 preserveAspectRatio="xMidYMid meet">
<metadata>
Created by potrace 1.11, written by Peter Selinger 2001-2013
</metadata>
<g transform="translate(0.000000,700.000000) scale(0.100000,-0.100000)"
fill="#000000" stroke="none">
<path d="M3225 6994 c-241 -24 -499 -70 -670 -120 -851 -245 -1559 -776 -2026
-1519 -218 -347 -377 -745 -459 -1145 -56 -278 -64 -367 -64 -710 0 -343 8
-432 64 -710 206 -1011 866 -1893 1785 -2383 294 -156 614 -271 935 -337 278
-56 367 -64 710 -64 343 0 432 8 710 64 1011 206 1893 866 2383 1785 156 294
271 614 337 935 56 278 64 367 64 710 0 343 -8 432 -64 710 -206 1011 -866
1893 -1785 2383 -369 196 -766 323 -1200 383 -114 15 -617 28 -720 18z m439
-14 c109 -6 260 -19 335 -30 746 -105 1430 -448 1966 -985 786 -787 1145
-1874 985 -2977 -83 -568 -298 -1083 -658 -1577 -445 -610 -1171 -1098 -1913
-1287 -295 -74 -563 -107 -884 -108 -290 -1 -520 25 -793 90 -1003 236 -1863
916 -2325 1839 -307 615 -427 1349 -331 2039 104 747 454 1449 989 1981 623
619 1454 984 2320 1018 39 2 79 4 90 5 11 1 110 -3 219 -8z"/>
<path d="M2985 6078 c-31 -17 -185 -170 -201 -200 -15 -30 -19 -93 -5 -84 5 3
12 -1 15 -10 4 -9 2 -13 -5 -8 -40 24 40 -67 200 -229 l185 -188 -304 -304
-305 -305 -217 217 c-120 120 -218 221 -218 225 0 5 32 41 70 82 67 70 84 94
58 81 -7 -4 14 19 47 51 33 32 53 55 45 50 -12 -6 -12 -5 1 6 49 42 21 105
-101 222 -111 107 -154 120 -213 63 -16 -15 -17 -18 -2 -7 11 8 7 0 -9 -18
-30 -32 -50 -45 -26 -17 25 31 -7 14 -41 -21 -18 -20 -64 -62 -100 -95 l-66
-58 -114 107 c-63 58 -107 97 -99 86 8 -11 1 -5 -15 13 -23 25 -36 32 -50 27
-14 -6 -16 -4 -10 6 12 20 -64 5 -84 -16 -9 -9 -10 -14 -3 -10 21 12 13 1 -20
-30 -32 -28 -32 -28 -9 -1 14 15 20 27 14 27 -15 0 -148 -141 -167 -177 -35
-68 -22 -93 127 -249 l106 -111 -89 -92 c-49 -51 -99 -107 -112 -124 l-21 -32
33 30 34 30 -34 -41 c-19 -22 -39 -38 -44 -36 -5 3 -7 -2 -3 -11 3 -10 2 -17
-3 -17 -14 0 -13 -37 2 -63 20 -40 120 -147 170 -183 63 -47 101 -48 147 -6
18 18 36 30 40 27 5 -2 21 10 37 28 l29 32 -35 -30 -35 -30 29 32 c16 18 33
30 38 27 5 -3 41 24 80 61 l71 67 221 -221 221 -221 -302 -302 -303 -303 -127
125 c-173 169 -270 259 -253 235 7 -11 0 -5 -18 13 -35 36 -74 42 -120 18 -32
-17 -185 -171 -201 -203 -6 -12 -10 -34 -10 -50 l1 -28 8 30 8 30 3 -30 c1
-16 3 -39 3 -50 1 -11 6 -20 11 -20 18 0 36 -17 32 -28 -2 -7 72 -92 166 -189
l169 -178 -169 -177 c-94 -98 -168 -183 -166 -190 4 -11 -14 -28 -32 -28 -5 0
-10 -9 -11 -20 0 -11 -2 -33 -3 -50 l-3 -30 -8 30 -8 30 -1 -31 c0 -16 6 -39
15 -50 8 -10 12 -13 8 -5 -5 9 -3 12 5 7 6 -4 8 -12 5 -18 -8 -12 139 -163
178 -184 43 -23 68 -17 122 28 27 24 46 36 41 28 -11 -18 76 60 243 217 l118
112 300 -300 299 -299 -221 -221 -222 -222 -79 77 c-76 72 -112 98 -82 58 7
-9 -6 1 -29 23 -49 46 -57 63 -10 19 22 -19 26 -21 13 -5 -26 30 -81 70 -71
50 4 -7 1 -6 -7 4 -9 11 -28 17 -56 17 -37 0 -49 -6 -98 -52 -103 -96 -171
-175 -132 -153 8 5 11 4 6 -1 -5 -5 -14 -9 -20 -9 -7 0 -13 -15 -15 -34 -3
-24 0 -31 9 -26 7 5 10 3 7 -6 -3 -8 1 -20 9 -27 7 -8 11 -17 8 -22 -3 -4 3
-14 13 -21 16 -13 16 -12 2 6 -15 20 -14 20 8 1 23 -20 30 -32 12 -21 -30 19
1 -22 85 -110 l94 -100 -77 -80 c-128 -131 -164 -175 -158 -191 3 -9 1 -12 -4
-9 -16 10 -12 -43 6 -78 19 -36 152 -177 167 -177 6 0 0 12 -14 27 -23 27 -23
27 9 -1 33 -31 41 -42 20 -30 -7 4 -6 -1 3 -10 20 -21 96 -36 84 -16 -6 10 -4
12 10 6 14 -5 27 2 50 27 16 18 23 24 15 13 -8 -12 22 13 65 54 44 42 96 90
115 107 l35 33 119 -110 c123 -115 159 -140 199 -140 22 0 107 52 107 66 0 4
-8 0 -17 -7 -16 -13 -17 -12 -4 3 7 10 17 16 21 13 10 -6 123 113 143 152 23
43 21 67 -6 87 -12 9 -15 14 -7 9 8 -4 -12 19 -45 51 -33 32 -54 55 -47 51 27
-14 9 12 -58 81 -38 39 -70 76 -70 81 0 4 98 106 218 226 l217 217 305 -305
304 -304 -185 -188 c-160 -162 -240 -253 -200 -229 7 5 9 1 5 -8 -3 -9 -10
-13 -15 -10 -14 8 -10 -54 5 -84 22 -42 189 -200 219 -207 15 -4 38 -4 52 -1
33 8 130 94 299 264 l140 141 182 -175 c101 -97 187 -173 192 -170 6 3 16 -2
23 -12 13 -16 12 -16 -6 -2 -20 15 -20 14 -1 -8 20 -23 32 -30 20 -10 -5 8 -2
9 12 3 10 -4 33 -11 49 -16 26 -8 25 -8 -10 -4 -28 3 -35 2 -25 -5 38 -24 80
-5 173 80 62 56 120 133 110 144 -4 3 -1 6 5 6 7 0 12 14 12 32 0 25 -9 41
-38 68 -21 19 -29 28 -18 20 20 -15 -57 71 -248 275 l-100 106 300 300 299
299 222 -222 c123 -123 223 -226 223 -230 0 -4 -46 -56 -102 -115 -57 -58 -96
-103 -88 -98 8 5 0 -6 -19 -23 -27 -26 -32 -37 -27 -58 4 -16 3 -23 -3 -20 -6
4 -7 -5 -1 -24 10 -33 71 -106 147 -174 112 -100 134 -94 315 82 l109 106 77
-75 c112 -108 166 -156 157 -139 -5 8 3 3 18 -12 28 -30 64 -36 100 -16 38 19
163 136 193 179 33 48 36 102 7 125 -10 9 -11 12 -4 8 25 -13 -24 47 -94 116
-37 36 -80 82 -97 103 l-30 37 117 122 c71 74 114 127 111 135 -4 9 -1 11 6 7
7 -5 9 -2 5 8 -3 9 -1 20 3 24 11 11 1 54 -12 54 -5 0 -7 4 -4 9 3 5 -3 20
-15 32 -11 13 -17 18 -13 10 5 -9 3 -12 -5 -7 -6 4 -9 11 -6 15 7 12 -143 154
-155 146 -5 -3 -10 -2 -10 3 0 15 -67 12 -80 -3 -7 -8 -16 -12 -21 -9 -5 3
-63 -48 -130 -112 l-120 -118 -227 227 -227 227 305 305 305 305 182 -181
c100 -100 186 -178 191 -175 5 3 16 -2 23 -12 12 -15 12 -16 -1 -7 -9 6 -8 2
3 -7 10 -9 25 -14 34 -11 11 4 14 2 9 -5 -11 -18 57 -15 80 4 10 8 13 12 5 8
-9 -5 -12 -3 -7 5 4 6 12 8 18 5 5 -4 48 32 93 78 106 107 123 158 73 218 -11
14 -16 19 -12 11 5 -9 3 -12 -5 -7 -6 4 -9 12 -5 17 3 6 -76 93 -177 194
l-183 185 175 177 c97 98 188 195 203 215 34 45 36 94 7 141 -28 45 -158 170
-170 163 -5 -4 -13 -1 -17 5 -5 8 -2 10 7 5 8 -4 5 0 -5 8 -23 19 -91 22 -80
4 5 -7 2 -9 -9 -5 -9 3 -24 -2 -34 -11 -11 -9 -12 -12 -3 -7 13 9 13 8 1 -7
-7 -10 -18 -15 -23 -12 -5 3 -91 -75 -191 -175 l-182 -181 -305 305 -305 305
226 226 226 225 100 -95 c55 -52 104 -92 108 -88 5 4 5 2 2 -4 -11 -19 64 -64
106 -64 22 0 37 5 37 12 0 6 3 8 6 5 11 -10 45 13 38 25 -4 6 -3 8 3 5 6 -4
46 31 90 76 76 79 102 125 85 152 -3 5 -7 18 -7 28 -2 20 -22 44 -149 174
l-89 92 41 48 c22 26 66 73 97 103 62 60 108 118 84 106 -8 -4 -7 -2 3 6 16
14 21 34 19 75 -2 44 -197 240 -228 229 -8 -3 -11 -1 -8 4 11 18 -49 11 -82
-10 -18 -10 -82 -67 -143 -126 l-110 -107 -110 107 c-60 59 -114 105 -119 101
-5 -3 -13 0 -17 6 -5 8 -2 10 7 5 8 -4 5 0 -6 8 -11 9 -25 14 -33 11 -7 -2
-10 0 -7 5 4 6 -7 10 -25 10 -18 0 -29 -4 -25 -10 3 -5 0 -7 -8 -4 -25 9 -206
-163 -189 -181 4 -3 0 -5 -8 -3 -9 2 -14 -4 -14 -14 1 -10 -2 -16 -6 -13 -4 3
-10 -6 -12 -20 -3 -14 -2 -25 2 -25 5 0 6 -9 3 -19 -3 -13 4 -29 21 -45 14
-14 22 -26 18 -26 -4 0 32 -39 79 -87 46 -49 93 -98 104 -111 l19 -23 -224
-224 -225 -225 -302 302 -302 301 179 186 c97 102 189 200 204 217 26 32 36
94 15 94 -5 0 -8 4 -5 9 8 12 -57 93 -121 152 -76 71 -127 92 -163 69 -10 -7
-3 -8 25 -5 39 5 39 4 6 -4 -18 -5 -47 -19 -65 -32 l-31 -22 25 28 c21 23 21
26 5 17 -11 -6 -105 -94 -210 -195 l-190 -185 -185 183 c-102 101 -201 192
-220 204 -38 23 -74 26 -105 9z m68 -5 c-7 -2 -21 -2 -30 0 -10 3 -4 5 12 5
17 0 24 -2 18 -5z m-54 -6 c-2 -1 -13 -9 -24 -17 -19 -14 -19 -14 -6 3 7 9 18
17 24 17 6 0 8 -1 6 -3z m-794 -347 c10 -11 16 -20 13 -20 -3 0 -13 9 -23 20
-10 11 -16 20 -13 20 3 0 13 -9 23 -20z m1975 17 c0 -2 -12 -14 -27 -28 l-28
-24 24 28 c23 25 31 32 31 24z m-2880 -120 c0 -2 -12 -14 -27 -28 l-28 -24 24
28 c23 25 31 32 31 24z m4420 -200 c0 -2 -10 -12 -22 -23 l-23 -19 19 23 c18
21 26 27 26 19z m-1920 -692 l295 -295 -300 -300 -300 -300 -297 297 -298 298
297 297 c164 164 300 298 303 298 3 0 138 -133 300 -295z m-1540 -308 c0 -1
-87 -88 -192 -192 l-193 -190 190 193 c176 178 195 197 195 189z m-1101 -200
c-2 -2 -17 -11 -34 -21 l-30 -17 24 20 c13 12 28 21 34 21 6 0 8 -1 6 -3z
m-216 -202 c-3 -9 -8 -14 -10 -11 -3 3 -2 9 2 15 9 16 15 13 8 -4z m312 -602
l-90 -88 85 88 85 87 -85 88 -85 87 90 -87 90 -88 -90 -87z m-140 -603 c10
-11 16 -20 13 -20 -3 0 -13 9 -23 20 -10 11 -16 20 -13 20 3 0 13 -9 23 -20z
m320 -468 c-11 -10 -56 -51 -100 -92 -78 -72 -78 -72 12 18 51 51 95 92 100
92 4 0 -1 -8 -12 -18z m1630 -562 c71 -71 127 -130 125 -130 -3 0 -64 59 -135
130 -71 72 -127 130 -125 130 3 0 64 -58 135 -130z m2645 -185 c13 -14 21 -25
18 -25 -2 0 -15 11 -28 25 -13 14 -21 25 -18 25 2 0 15 -11 28 -25z m-966
-255 c60 -64 57 -62 -16 12 -49 48 -88 93 -88 100 0 7 7 1 16 -12 9 -14 49
-59 88 -100z m-3458 58 l29 -33 -32 29 c-31 28 -38 36 -30 36 2 0 16 -15 33
-32z m1044 8 c0 -2 -8 -10 -17 -17 -16 -13 -17 -12 -4 4 13 16 21 21 21 13z
m-304 -128 l29 -33 -32 29 c-31 28 -38 36 -30 36 2 0 16 -15 33 -32z m2861
-44 c-3 -3 -12 -4 -19 -1 -8 3 -5 6 6 6 11 1 17 -2 13 -5z m-2076 -121 c13
-16 12 -17 -3 -4 -10 7 -18 15 -18 17 0 8 8 3 21 -13z m183 -182 c-2 -3 -12 3
-22 13 -16 17 -16 18 5 5 12 -7 20 -15 17 -18z m59 -8 c-7 -2 -21 -2 -30 0
-10 3 -4 5 12 5 17 0 24 -2 18 -5z"/>
<path d="M2294 5388 l-29 -33 33 29 c17 17 32 31 32 33 0 8 -8 1 -36 -29z"/>
<path d="M2300 1605 c19 -19 36 -35 39 -35 3 0 -10 16 -29 35 -19 19 -36 35
-39 35 -3 0 10 -16 29 -35z"/>
</g>
</svg>
