<?xml version="1.0" encoding="UTF-8" standalone="no"?>
<svg
   xmlns:dc="http://purl.org/dc/elements/1.1/"
   xmlns:cc="http://creativecommons.org/ns#"
   xmlns:rdf="http://www.w3.org/1999/02/22-rdf-syntax-ns#"
   xmlns:svg="http://www.w3.org/2000/svg"
   xmlns="http://www.w3.org/2000/svg"
   xmlns:sodipodi="http://sodipodi.sourceforge.net/DTD/sodipodi-0.dtd"
   xmlns:inkscape="http://www.inkscape.org/namespaces/inkscape"
   aria-hidden="true"
   focusable="false"
   data-prefix="fas"
   data-icon="stroopwafel"
   class="svg-inline--fa fa-stroopwafel fa-w-16"
   role="img"
   viewBox="0 0 512 512"
   version="1.1"
   id="svg3779"
   sodipodi:docname="logo.svg"
   inkscape:version="0.92.3 (2405546, 2018-03-11)">
  <metadata
     id="metadata3785">
    <rdf:RDF>
      <cc:Work
         rdf:about="">
        <dc:format>image/svg+xml</dc:format>
        <dc:type
           rdf:resource="http://purl.org/dc/dcmitype/StillImage" />
      </cc:Work>
    </rdf:RDF>
  </metadata>
  <defs
     id="defs3783" />
  <sodipodi:namedview
     pagecolor="#ffffff"
     bordercolor="#666666"
     borderopacity="1"
     objecttolerance="10"
     gridtolerance="10"
     guidetolerance="10"
     inkscape:pageopacity="0"
     inkscape:pageshadow="2"
     inkscape:window-width="1366"
     inkscape:window-height="711"
     id="namedview3781"
     showgrid="false"
     inkscape:zoom="1.015625"
     inkscape:cx="84.676923"
     inkscape:cy="256"
     inkscape:window-x="0"
     inkscape:window-y="0"
     inkscape:window-maximized="1"
     inkscape:current-layer="svg3779" />
  <path
     fill="currentColor"
     d="M188.12 210.74L142.86 256l45.25 45.25L233.37 256l-45.25-45.26zm113.13-22.62L256 142.86l-45.25 45.25L256 233.37l45.25-45.25zm-90.5 135.76L256 369.14l45.26-45.26L256 278.63l-45.25 45.25zM256 0C114.62 0 0 114.62 0 256s114.62 256 256 256 256-114.62 256-256S397.38 0 256 0zm186.68 295.6l-11.31 11.31c-3.12 3.12-8.19 3.12-11.31 0l-28.29-28.29-45.25 45.25 33.94 33.94 16.97-16.97c3.12-3.12 8.19-3.12 11.31 0l11.31 11.31c3.12 3.12 3.12 8.19 0 11.31l-16.97 16.97 16.97 16.97c3.12 3.12 3.12 8.19 0 11.31l-11.31 11.31c-3.12 3.12-8.19 3.12-11.31 0l-16.97-16.97-16.97 16.97c-3.12 3.12-8.19 3.12-11.31 0l-11.31-11.31c-3.12-3.12-3.12-8.19 0-11.31l16.97-16.97-33.94-33.94-45.26 45.26 28.29 28.29c3.12 3.12 3.12 8.19 0 11.31l-11.31 11.31c-3.12 3.12-8.19 3.12-11.31 0L256 414.39l-28.29 28.29c-3.12 3.12-8.19 3.12-11.31 0l-11.31-11.31c-3.12-3.12-3.12-8.19 0-11.31l28.29-28.29-45.25-45.26-33.94 33.94 16.97 16.97c3.12 3.12 3.12 8.19 0 11.31l-11.31 11.31c-3.12 3.12-8.19 3.12-11.31 0l-16.97-16.97-16.97 16.97c-3.12 3.12-8.19 3.12-11.31 0l-11.31-11.31c-3.12-3.12-3.12-8.19 0-11.31l16.97-16.97-16.97-16.97c-3.12-3.12-3.12-8.19 0-11.31l11.31-11.31c3.12-3.12 8.19-3.12 11.31 0l16.97 16.97 33.94-33.94-45.25-45.25-28.29 28.29c-3.12 3.12-8.19 3.12-11.31 0L69.32 295.6c-3.12-3.12-3.12-8.19 0-11.31L97.61 256l-28.29-28.29c-3.12-3.12-3.12-8.19 0-11.31l11.31-11.31c3.12-3.12 8.19-3.12 11.31 0l28.29 28.29 45.25-45.26-33.94-33.94-16.97 16.97c-3.12 3.12-8.19 3.12-11.31 0l-11.31-11.31c-3.12-3.12-3.12-8.19 0-11.31l16.97-16.97-16.97-16.97c-3.12-3.12-3.12-8.19 0-11.31l11.31-11.31c3.12-3.12 8.19-3.12 11.31 0l16.97 16.97 16.97-16.97c3.12-3.12 8.19-3.12 11.31 0l11.31 11.31c3.12 3.12 3.12 8.19 0 11.31l-16.97 16.97 33.94 33.94 45.26-45.25-28.29-28.29c-3.12-3.12-3.12-8.19 0-11.31l11.31-11.31c3.12-3.12 8.19-3.12 11.31 0L256 97.61l28.29-28.29c3.12-3.12 8.19-3.12 11.31 0l11.31 11.31c3.12 3.12 3.12 8.19 0 11.31l-28.29 28.29 45.26 45.25 33.94-33.94-16.97-16.97c-3.12-3.12-3.12-8.19 0-11.31l11.31-11.31c3.12-3.12 8.19-3.12 11.31 0l16.97 16.97 16.97-16.97c3.12-3.12 8.19-3.12 11.31 0l11.31 11.31c3.12 3.12 3.12 8.19 0 11.31l-16.97 16.97 16.97 16.97c3.12 3.12 3.12 8.19 0 11.31l-11.31 11.31c-3.12 3.12-8.19 3.12-11.31 0l-16.97-16.97-33.94 33.94 45.25 45.26 28.29-28.29c3.12-3.12 8.19-3.12 11.31 0l11.31 11.31c3.12 3.12 3.12 8.19 0 11.31L414.39 256l28.29 28.28a8.015 8.015 0 0 1 0 11.32zM278.63 256l45.26 45.25L369.14 256l-45.25-45.26L278.63 256z"
     id="path3777" />
  <path
     style="fill:#ffff00;stroke-width:0.98461539"
     d="m 233.74769,210.21538 -22.14293,-22.15934 22.15385,-22.15385 22.15384,-22.15385 22.14293,22.15935 22.14294,22.15935 -22.15385,22.15385 -22.15385,22.15384 z"
     id="path3787"
     inkscape:connector-curvature="0" />
  <path
     style="fill:#ff0000;fill-opacity:1;stroke-width:0.98461539"
     d="m 233.88984,345.84078 -22.3948,-22.41069 22.15677,-22.14036 22.15677,-22.14036 22.39454,22.39455 22.39455,22.39454 -22.15651,22.15651 -22.15651,22.15651 z"
     id="path4596"
     inkscape:connector-curvature="0" />
  <path
     style="fill:#0000ff;fill-opacity:1;stroke-width:0.98461539"
     d="m 166.20308,278.15385 -22.14294,-22.15935 22.15385,-22.15385 22.15385,-22.15385 22.14293,22.15935 22.14293,22.15935 -22.15384,22.15385 -22.15385,22.15385 z"
     id="path4598"
     inkscape:connector-curvature="0" />
  <path
     style="fill:#00ff00;fill-opacity:1;stroke-width:0.98461539"
     d="m 301.09263,278.15109 -22.14018,-22.15659 22.39455,-22.39455 22.39454,-22.39454 22.39454,22.39454 22.39454,22.39455 -22.14018,22.15659 c -12.1771,12.18613 -22.36911,22.1566 -22.6489,22.1566 -0.2798,0 -10.4718,-9.97047 -22.64891,-22.1566 z"
     id="path4600"
     inkscape:connector-curvature="0" />
  <path
     style="fill:#000000;fill-opacity:0;stroke-width:0.98461539"
     d="m 211.22613,436.40899 c -11.17487,-11.2408 -11.3382,-10.60538 7.63863,-29.71661 l 15.2463,-15.35428 -22.39262,-22.37674 c -12.31594,-12.30721 -22.82754,-22.37674 -23.35911,-22.37674 -0.53158,0 -8.60401,7.62816 -17.93874,16.95146 l -16.97226,16.95146 9.82353,9.98272 c 12.52992,12.73298 12.53913,12.83372 2.12562,23.24722 -10.75602,10.75603 -11.40187,10.70542 -24.03833,-1.88362 l -9.61761,-9.58153 -9.61762,9.58153 c -12.67514,12.62757 -13.43251,12.68812 -24.128558,1.92898 -10.550112,-10.61237 -10.508634,-11.12601 1.933858,-23.9486 l 9.54153,-9.83301 -9.54153,-9.57746 c -12.45931,-12.50624 -12.4717,-12.73286 -1.292602,-23.6445 5.415352,-5.28579 9.015732,-8.05158 10.481202,-8.05158 1.50374,0 5.4902,3.20598 12.21485,9.82338 l 9.98257,9.82338 17.44294,-17.46316 17.44294,-17.46314 -22.40688,-22.39101 c -12.32378,-12.31504 -22.84122,-22.39099 -23.37209,-22.39099 -0.53086,0 -7.69572,6.72 -15.92189,14.93334 -18.532983,18.50404 -17.731259,18.30565 -28.941098,7.16156 -11.147897,-11.08251 -11.402656,-10.11297 7.678527,-29.22216 L 98.733841,256 83.237689,240.48111 c -19.081183,-19.10919 -18.826424,-18.13965 -7.678527,-29.22216 11.209839,-11.14409 10.408115,-11.34248 28.941098,7.16156 8.22617,8.21334 15.39103,14.93334 15.92189,14.93334 0.53087,0 11.04831,-10.07595 23.37209,-22.39099 l 22.40688,-22.39101 -17.44294,-17.46314 -17.44294,-17.46316 -9.98257,9.82338 c -5.49042,5.40286 -10.73343,9.82338 -11.65113,9.82338 -3.13137,0 -7.12856,-2.82116 -13.213298,-9.32577 -8.750342,-9.35414 -8.611353,-10.25251 3.460978,-22.37031 l 9.54153,-9.57747 -9.54153,-9.833 C 87.449249,109.32454 87.405194,108.76496 98.040245,98.192286 108.71357,87.581562 109.31852,87.630735 122.05523,100.1443 l 9.73015,9.55969 9.59569,-9.55969 c 12.61172,-12.564385 13.2633,-12.614897 24.01641,-1.861782 10.41351,10.413512 10.4043,10.514242 -2.12562,23.247222 l -9.82353,9.98272 16.97226,16.95146 c 9.33473,9.32331 17.40716,16.95146 17.93874,16.95146 0.53157,0 11.04317,-10.06953 23.35911,-22.37674 l 22.39262,-22.37674 -15.2463,-15.35428 C 199.8495,86.157693 200.00071,86.750332 211.27101,75.546131 c 11.20593,-11.140203 10.66555,-11.272562 29.23865,7.161561 8.18432,8.123077 15.31131,14.769231 15.83777,14.769231 0.52646,0 7.59226,-6.646154 15.7018,-14.769231 18.29164,-18.322184 17.90867,-18.220273 28.67574,-7.630769 11.47394,11.284712 11.6796,10.435237 -7.10708,29.354967 l -15.61813,15.72873 22.86694,22.86694 22.86693,22.86693 17.23075,-17.20965 17.23076,-17.20966 -8.80689,-8.87605 c -10.02401,-10.10272 -11.43172,-12.6637 -9.2725,-16.86887 1.98317,-3.86234 10.87384,-12.774899 14.49108,-14.52678 4.34089,-2.102356 6.79451,-0.755794 16.90868,9.27959 l 8.88166,8.81248 8.34911,-8.47419 c 12.83316,-13.025416 14.90772,-13.319862 24.91611,-3.536383 6.66446,6.514703 8.90473,10.235673 7.9998,13.287313 -0.35329,1.19139 -4.80782,6.38426 -9.89895,11.5397 l -9.2566,9.37354 8.44231,8.34954 c 9.31408,9.21173 11.68416,12.75854 10.71139,16.02952 -0.89935,3.02409 -14.03394,16.18129 -16.86207,16.89111 -3.41805,0.85788 -5.75715,-0.70187 -15.59432,-10.39851 l -8.87605,-8.74925 -17.20966,17.23076 -17.20965,17.23074 22.86631,22.86633 22.86633,22.86631 15.03477,-14.87505 c 8.26912,-8.18128 16.00955,-15.17265 17.20094,-15.53639 3.0584,-0.93373 6.77309,1.30719 13.22955,7.98082 6.52575,6.74525 8.09259,9.45297 7.18669,12.41958 -0.36583,1.19801 -7.35686,8.94175 -15.53561,17.20832 l -14.87045,15.03014 14.89151,15.00063 c 8.19034,8.25035 15.18136,15.98082 15.53561,17.17883 0.87959,2.97463 -0.695,5.68777 -7.20775,12.41958 -6.45646,6.67363 -10.17115,8.91455 -13.22955,7.98082 -1.19139,-0.36374 -8.93182,-7.35511 -17.20094,-15.53639 l -15.03477,-14.87505 -22.86633,22.86631 -22.86631,22.86633 17.21009,17.23119 17.21009,17.23119 9.58321,-9.54723 c 12.57061,-12.52345 13.50025,-12.61315 23.87849,-2.30418 4.01045,3.98368 7.55333,8.28536 7.87306,9.55927 0.86805,3.4586 -1.38598,6.83803 -10.71458,16.06413 l -8.44231,8.34954 9.2566,9.37354 c 5.09113,5.15544 9.54566,10.34831 9.89895,11.5397 0.93799,3.16315 -1.37892,6.87763 -8.62883,13.83383 -5.47419,5.25241 -6.93992,6.15384 -10.00617,6.15384 -3.20552,0 -4.62,-1.00044 -13.13138,-9.28771 l -9.53889,-9.28771 -9.46207,9.28771 c -12.47304,12.24319 -13.19656,12.29291 -23.7918,1.63517 -10.58037,-10.6428 -10.53217,-11.30818 1.72237,-23.78124 l 9.33004,-9.49641 -17.21092,-17.18984 -17.21091,-17.18984 -22.86693,22.86694 -22.86694,22.86693 15.61813,15.72873 c 18.78668,18.91973 18.58102,18.07025 7.10708,29.35497 -10.76707,10.5895 -10.3841,10.69141 -28.67574,-7.63077 -8.10954,-8.12308 -15.17534,-14.76923 -15.7018,-14.76923 -0.52646,0 -7.65345,6.64615 -15.83777,14.76923 -18.61167,18.4724 -18.11452,18.35157 -29.28353,7.11668 z m 67.7181,-89.82706 22.63279,-22.64885 -22.88697,-22.88698 -22.88697,-22.88696 -22.88697,22.88696 -22.88698,22.88698 22.6328,22.64885 c 12.44803,12.45686 22.86155,22.64884 23.14115,22.64884 0.2796,0 10.69312,-10.19198 23.14115,-22.64884 z m -67.93847,-67.93846 22.6328,-22.64886 -22.88697,-22.88697 -22.88697,-22.88696 -22.88698,22.88696 -22.88696,22.88697 22.63279,22.64886 c 12.44803,12.45686 22.86154,22.64884 23.14115,22.64884 0.2796,0 10.69312,-10.19198 23.14114,-22.64884 z m 135.87693,0 22.63279,-22.64886 -22.88697,-22.88697 -22.88697,-22.88696 -22.88697,22.88696 -22.88697,22.88697 22.63279,22.64886 c 12.44803,12.45686 22.86155,22.64884 23.14115,22.64884 0.2796,0 10.69312,-10.19198 23.14115,-22.64884 z m -67.93846,-67.93847 22.63279,-22.64885 -22.88697,-22.88696 -22.88697,-22.88697 -22.88697,22.88697 -22.88698,22.88696 22.6328,22.64885 c 12.44803,12.45687 22.86155,22.64885 23.14115,22.64885 0.2796,0 10.69312,-10.19198 23.14115,-22.64885 z"
     id="path4604"
     inkscape:connector-curvature="0" />
  <path
     style="fill:#000000;fill-opacity:0;stroke-width:0.98461539"
     d="M 241.03385,510.94306 C 149.62229,505.73186 67.186583,451.02088 26.924386,368.84276 15.043309,344.5926 7.3986294,320.38404 3.1056186,293.41538 0.54881122,277.35354 0.51813465,234.74912 3.0518541,218.74586 11.990711,162.28701 38.004237,111.77707 78.203652,72.825152 91.602095,59.842497 99.42786,53.543974 115.55364,42.764223 152.19114,18.272813 196.49755,3.5408929 240.78744,1.1238614 314.27262,-2.8864435 383.1591,22.972497 435.12032,74.07348 c 59.67701,58.68905 86.7576,142.53245 72.69703,225.07511 -15.88826,93.27223 -83.31169,171.02841 -173.37731,199.94768 -19.70231,6.32624 -40.52165,10.41764 -57.96004,11.39023 -5.68615,0.31713 -12.99692,0.7201 -16.24615,0.89547 -3.24923,0.17538 -11.88923,-0.0222 -19.2,-0.43891 z m -0.27246,-80.88565 15.01219,-14.98875 15.10174,14.98875 c 14.3584,14.25095 15.29323,14.98874 18.9917,14.98874 3.54631,0 4.55671,-0.6741 11.4376,-7.63077 7.91134,-7.99847 9.5951,-11.33929 7.64556,-15.16983 -0.64581,-1.2689 -7.55033,-8.73623 -15.34341,-16.59407 l -14.16921,-14.28699 22.15066,-22.13424 22.15066,-22.13425 16.73641,16.71469 16.73643,16.71469 -9.35048,9.3857 c -8.61952,8.65198 -9.35047,9.68694 -9.35047,13.2394 0,3.49686 0.71284,4.56655 7.6979,11.55162 6.92863,6.92862 8.0749,7.6979 11.47042,7.6979 3.44146,0 4.60123,-0.81668 13.2154,-9.30592 l 9.44287,-9.30592 9.47186,9.30592 c 8.584,8.43361 9.82009,9.30592 13.18688,9.30592 3.31393,0 4.57253,-0.84044 11.65791,-7.78469 7.05145,-6.911 7.94291,-8.18665 7.94291,-11.366 0,-3.21596 -0.97372,-4.55503 -9.54512,-13.12643 l -9.54513,-9.54513 9.54513,-9.58107 c 12.68754,-12.73534 12.73038,-13.43342 1.51304,-24.65076 -11.21765,-11.21766 -11.91511,-11.17479 -24.65302,1.51532 l -9.58336,9.5474 -16.71744,-16.73917 -16.71745,-16.73917 22.38861,-22.38861 22.3886,-22.38861 15.13016,15.10654 c 14.17578,14.15364 15.36496,15.10653 18.85253,15.10653 3.34237,0 4.53231,-0.80992 11.65599,-7.93361 11.68113,-11.68113 11.82383,-11.08791 -7.26678,-30.20838 L 414.84229,256 430.04268,240.77584 c 19.09061,-19.12047 18.94791,-18.52725 7.26678,-30.20838 -7.12368,-7.12369 -8.31362,-7.93361 -11.65599,-7.93361 -3.48757,0 -4.67675,0.95289 -18.85253,15.10653 l -15.13016,15.10654 -22.3886,-22.38861 -22.38861,-22.38861 16.71745,-16.73917 16.71744,-16.73917 9.58336,9.5474 c 12.73791,12.69011 13.43537,12.73298 24.65302,1.51532 11.2266,-11.22659 11.1826,-11.94325 -1.51304,-24.63889 l -9.54513,-9.54513 9.54513,-9.58108 c 12.63421,-12.68179 12.68728,-13.42701 1.74053,-24.438342 C 407.68997,90.306383 406.64102,89.6 403.1344,89.6 c -3.54227,0 -4.62026,0.753507 -13.35419,9.33442 l -9.50086,9.33442 -9.29562,-9.33442 C 362.37326,90.287997 361.40135,89.6 357.79735,89.6 c -3.54311,0 -4.57863,0.687859 -11.58868,7.697902 -6.98506,6.985068 -7.6979,8.054758 -7.6979,11.551618 0,3.55246 0.73095,4.58742 9.35047,13.2394 l 9.35048,9.3857 -16.73643,16.71469 -16.73641,16.71469 -22.13621,-22.1198 -22.13622,-22.11982 14.13085,-14.30142 c 7.77198,-7.865778 14.67,-15.339613 15.32897,-16.608514 1.98199,-3.816569 0.30348,-7.15741 -7.62165,-15.169831 -6.88089,-6.956663 -7.89129,-7.630769 -11.4376,-7.630769 -3.69847,0 -4.6333,0.73779 -18.9917,14.988746 L 255.77358,96.931338 240.76139,81.942592 C 226.51265,67.716089 225.55293,66.953846 221.88943,66.953846 c -3.50443,0 -4.5685,0.708716 -11.55768,7.697902 -6.94779,6.947796 -7.6979,8.068157 -7.6979,11.497617 0,3.582166 0.85842,4.664619 14.99332,18.906075 l 14.99331,15.10635 -22.37745,22.37745 -22.37745,22.37746 -16.48067,-16.48067 -16.48067,-16.48067 8.49458,-8.62384 C 176.916,109.60868 176.97248,109.06124 166.02843,97.848921 158.61041,90.249095 157.66983,89.6 154.07512,89.6 c -3.60341,0 -4.62817,0.713704 -13.4026,9.33442 l -9.50087,9.33442 -9.29561,-9.33442 C 113.26557,90.287997 112.29366,89.6 108.68965,89.6 c -3.5431,0 -4.57862,0.687859 -11.588671,7.697902 -6.928626,6.928628 -7.697902,8.074898 -7.697902,11.470418 0,3.44146 0.81668,4.60123 9.305925,13.2154 l 9.305918,9.44287 -9.305918,9.47186 c -8.417584,8.56768 -9.305925,9.82479 -9.305925,13.16901 0,3.27384 0.855616,4.57637 7.473099,11.37646 4.110204,4.22362 8.510224,7.93962 9.777824,8.25777 3.95574,0.99283 7.56773,-1.2094 16.4806,-10.04828 l 8.62383,-8.55225 16.47793,16.47793 16.47791,16.47792 -22.11146,22.12784 -22.11146,22.12785 -14.80567,-14.591 c -9.562498,-9.42384 -15.73512,-14.76447 -17.430226,-15.08084 -4.110703,-0.76722 -7.678927,1.35359 -14.852377,8.82763 -5.8082,6.05159 -6.646154,7.39323 -6.646154,10.64109 0,3.47455 0.974552,4.69833 14.974108,18.80342 L 96.705139,256 81.731031,271.087 c -13.999556,14.10509 -14.974108,15.32887 -14.974108,18.80342 0,3.24786 0.837954,4.5895 6.646154,10.64109 7.17345,7.47404 10.741674,9.59485 14.852377,8.82763 1.695106,-0.31637 7.867728,-5.657 17.430226,-15.08084 l 14.80567,-14.591 22.11146,22.12785 22.11146,22.12784 -16.45552,16.45552 -16.45553,16.45553 -9.13853,-8.92476 c -5.11592,-4.99623 -10.33415,-9.21598 -11.85473,-9.58637 -3.83716,-0.93466 -7.03807,1.02439 -14.760729,9.03403 -5.796142,6.01153 -6.646154,7.36497 -6.646154,10.58237 0,3.33628 0.890328,4.59267 9.305925,13.13211 l 9.305918,9.44286 -9.305918,9.47186 c -8.476013,8.62715 -9.305925,9.80746 -9.305925,13.23496 0,3.38376 0.775987,4.53908 7.697902,11.461 7.010051,7.01004 8.045571,7.6979 11.588671,7.6979 3.60401,0 4.57592,-0.688 13.18639,-9.33442 l 9.29561,-9.33442 9.50087,9.33442 c 8.77443,8.62071 9.79919,9.33442 13.4026,9.33442 3.59471,0 4.53529,-0.6491 11.95331,-8.24892 10.94405,-11.21232 10.88757,-11.75976 -2.62961,-25.4826 l -8.49458,-8.62384 16.48067,-16.48067 16.48067,-16.48067 22.37745,22.37746 22.37745,22.37745 -14.99331,15.10635 c -14.1349,14.24146 -14.99332,15.32391 -14.99332,18.90607 0,3.42947 0.75011,4.54982 7.6979,11.49762 6.98918,6.98919 8.05325,7.6979 11.55768,7.6979 3.6635,0 4.62322,-0.76224 18.87196,-14.98874 z"
     id="path4606"
     inkscape:connector-curvature="0" />
  <path
     style="fill:#000000;fill-opacity:0;stroke-width:0.98461539"
     d="M 241.03385,510.94306 C 149.62229,505.73186 67.186583,451.02088 26.924386,368.84276 15.043309,344.5926 7.3986294,320.38404 3.1056186,293.41538 0.54881122,277.35354 0.51813465,234.74912 3.0518541,218.74586 11.990711,162.28701 38.004237,111.77707 78.203652,72.825152 91.602095,59.842497 99.42786,53.543974 115.55364,42.764223 152.19114,18.272813 196.49755,3.5408929 240.78744,1.1238614 314.27262,-2.8864435 383.1591,22.972497 435.12032,74.07348 c 59.67701,58.68905 86.7576,142.53245 72.69703,225.07511 -15.88826,93.27223 -83.31169,171.02841 -173.37731,199.94768 -19.70231,6.32624 -40.52165,10.41764 -57.96004,11.39023 -5.68615,0.31713 -12.99692,0.7201 -16.24615,0.89547 -3.24923,0.17538 -11.88923,-0.0222 -19.2,-0.43891 z m -0.27246,-80.88565 15.01219,-14.98875 15.10174,14.98875 c 14.3584,14.25095 15.29323,14.98874 18.9917,14.98874 3.54631,0 4.55671,-0.6741 11.4376,-7.63077 7.91134,-7.99847 9.5951,-11.33929 7.64556,-15.16983 -0.64581,-1.2689 -7.55033,-8.73623 -15.34341,-16.59407 l -14.16921,-14.28699 22.15066,-22.13424 22.15066,-22.13425 16.73641,16.71469 16.73643,16.71469 -9.35048,9.3857 c -8.61952,8.65198 -9.35047,9.68694 -9.35047,13.2394 0,3.49686 0.71284,4.56655 7.6979,11.55162 6.92863,6.92862 8.0749,7.6979 11.47042,7.6979 3.44146,0 4.60123,-0.81668 13.2154,-9.30592 l 9.44287,-9.30592 9.47186,9.30592 c 8.584,8.43361 9.82009,9.30592 13.18688,9.30592 3.31393,0 4.57253,-0.84044 11.65791,-7.78469 7.05145,-6.911 7.94291,-8.18665 7.94291,-11.366 0,-3.21596 -0.97372,-4.55503 -9.54512,-13.12643 l -9.54513,-9.54513 9.54513,-9.58107 c 12.68754,-12.73534 12.73038,-13.43342 1.51304,-24.65076 -11.21765,-11.21766 -11.91511,-11.17479 -24.65302,1.51532 l -9.58336,9.5474 -16.71744,-16.73917 -16.71745,-16.73917 22.38861,-22.38861 22.3886,-22.38861 15.13016,15.10654 c 14.17578,14.15364 15.36496,15.10653 18.85253,15.10653 3.34237,0 4.53231,-0.80992 11.65599,-7.93361 11.68113,-11.68113 11.82383,-11.08791 -7.26678,-30.20838 L 414.84229,256 430.04268,240.77584 c 19.09061,-19.12047 18.94791,-18.52725 7.26678,-30.20838 -7.12368,-7.12369 -8.31362,-7.93361 -11.65599,-7.93361 -3.48757,0 -4.67675,0.95289 -18.85253,15.10653 l -15.13016,15.10654 -22.3886,-22.38861 -22.38861,-22.38861 16.71745,-16.73917 16.71744,-16.73917 9.58336,9.5474 c 12.73791,12.69011 13.43537,12.73298 24.65302,1.51532 11.2266,-11.22659 11.1826,-11.94325 -1.51304,-24.63889 l -9.54513,-9.54513 9.54513,-9.58108 c 12.63421,-12.68179 12.68728,-13.42701 1.74053,-24.438342 C 407.68997,90.306383 406.64102,89.6 403.1344,89.6 c -3.54227,0 -4.62026,0.753507 -13.35419,9.33442 l -9.50086,9.33442 -9.29562,-9.33442 C 362.37326,90.287997 361.40135,89.6 357.79735,89.6 c -3.54311,0 -4.57863,0.687859 -11.58868,7.697902 -6.98506,6.985068 -7.6979,8.054758 -7.6979,11.551618 0,3.55246 0.73095,4.58742 9.35047,13.2394 l 9.35048,9.3857 -16.73643,16.71469 -16.73641,16.71469 -22.13621,-22.1198 -22.13622,-22.11982 14.13085,-14.30142 c 7.77198,-7.865778 14.67,-15.339613 15.32897,-16.608514 1.98199,-3.816569 0.30348,-7.15741 -7.62165,-15.169831 -6.88089,-6.956663 -7.89129,-7.630769 -11.4376,-7.630769 -3.69847,0 -4.6333,0.73779 -18.9917,14.988746 L 255.77358,96.931338 240.76139,81.942592 C 226.51265,67.716089 225.55293,66.953846 221.88943,66.953846 c -3.50443,0 -4.5685,0.708716 -11.55768,7.697902 -6.94779,6.947796 -7.6979,8.068157 -7.6979,11.497617 0,3.582166 0.85842,4.664619 14.99332,18.906075 l 14.99331,15.10635 -22.37745,22.37745 -22.37745,22.37746 -16.48067,-16.48067 -16.48067,-16.48067 8.49458,-8.62384 C 176.916,109.60868 176.97248,109.06124 166.02843,97.848921 158.61041,90.249095 157.66983,89.6 154.07512,89.6 c -3.60341,0 -4.62817,0.713704 -13.4026,9.33442 l -9.50087,9.33442 -9.29561,-9.33442 C 113.26557,90.287997 112.29366,89.6 108.68965,89.6 c -3.5431,0 -4.57862,0.687859 -11.588671,7.697902 -6.928626,6.928628 -7.697902,8.074898 -7.697902,11.470418 0,3.44146 0.81668,4.60123 9.305925,13.2154 l 9.305918,9.44287 -9.305918,9.47186 c -8.417584,8.56768 -9.305925,9.82479 -9.305925,13.16901 0,3.27384 0.855616,4.57637 7.473099,11.37646 4.110204,4.22362 8.510224,7.93962 9.777824,8.25777 3.95574,0.99283 7.56773,-1.2094 16.4806,-10.04828 l 8.62383,-8.55225 16.47793,16.47793 16.47791,16.47792 -22.11146,22.12784 -22.11146,22.12785 -14.80567,-14.591 c -9.562498,-9.42384 -15.73512,-14.76447 -17.430226,-15.08084 -4.110703,-0.76722 -7.678927,1.35359 -14.852377,8.82763 -5.8082,6.05159 -6.646154,7.39323 -6.646154,10.64109 0,3.47455 0.974552,4.69833 14.974108,18.80342 L 96.705139,256 81.731031,271.087 c -13.999556,14.10509 -14.974108,15.32887 -14.974108,18.80342 0,3.24786 0.837954,4.5895 6.646154,10.64109 7.17345,7.47404 10.741674,9.59485 14.852377,8.82763 1.695106,-0.31637 7.867728,-5.657 17.430226,-15.08084 l 14.80567,-14.591 22.11146,22.12785 22.11146,22.12784 -16.45552,16.45552 -16.45553,16.45553 -9.13853,-8.92476 c -5.11592,-4.99623 -10.33415,-9.21598 -11.85473,-9.58637 -3.83716,-0.93466 -7.03807,1.02439 -14.760729,9.03403 -5.796142,6.01153 -6.646154,7.36497 -6.646154,10.58237 0,3.33628 0.890328,4.59267 9.305925,13.13211 l 9.305918,9.44286 -9.305918,9.47186 c -8.476013,8.62715 -9.305925,9.80746 -9.305925,13.23496 0,3.38376 0.775987,4.53908 7.697902,11.461 7.010051,7.01004 8.045571,7.6979 11.588671,7.6979 3.60401,0 4.57592,-0.688 13.18639,-9.33442 l 9.29561,-9.33442 9.50087,9.33442 c 8.77443,8.62071 9.79919,9.33442 13.4026,9.33442 3.59471,0 4.53529,-0.6491 11.95331,-8.24892 10.94405,-11.21232 10.88757,-11.75976 -2.62961,-25.4826 l -8.49458,-8.62384 16.48067,-16.48067 16.48067,-16.48067 22.37745,22.37746 22.37745,22.37745 -14.99331,15.10635 c -14.1349,14.24146 -14.99332,15.32391 -14.99332,18.90607 0,3.42947 0.75011,4.54982 7.6979,11.49762 6.98918,6.98919 8.05325,7.6979 11.55768,7.6979 3.6635,0 4.62322,-0.76224 18.87196,-14.98874 z"
     id="path4608"
     inkscape:connector-curvature="0" />
  <path
     style="fill:#000000;fill-opacity:0;stroke-width:0.98461539"
     d="M 241.03385,510.94306 C 149.62229,505.73186 67.186583,451.02088 26.924386,368.84276 15.043309,344.5926 7.3986294,320.38404 3.1056186,293.41538 0.54881122,277.35354 0.51813465,234.74912 3.0518541,218.74586 11.990711,162.28701 38.004237,111.77707 78.203652,72.825152 91.602095,59.842497 99.42786,53.543974 115.55364,42.764223 152.19114,18.272813 196.49755,3.5408929 240.78744,1.1238614 314.27262,-2.8864435 383.1591,22.972497 435.12032,74.07348 c 59.67701,58.68905 86.7576,142.53245 72.69703,225.07511 -15.88826,93.27223 -83.31169,171.02841 -173.37731,199.94768 -19.70231,6.32624 -40.52165,10.41764 -57.96004,11.39023 -5.68615,0.31713 -12.99692,0.7201 -16.24615,0.89547 -3.24923,0.17538 -11.88923,-0.0222 -19.2,-0.43891 z m -0.27246,-80.88565 15.01219,-14.98875 15.10174,14.98875 c 14.3584,14.25095 15.29323,14.98874 18.9917,14.98874 3.54631,0 4.55671,-0.6741 11.4376,-7.63077 7.91134,-7.99847 9.5951,-11.33929 7.64556,-15.16983 -0.64581,-1.2689 -7.55033,-8.73623 -15.34341,-16.59407 l -14.16921,-14.28699 22.15066,-22.13424 22.15066,-22.13425 16.73641,16.71469 16.73643,16.71469 -9.35048,9.3857 c -8.61952,8.65198 -9.35047,9.68694 -9.35047,13.2394 0,3.49686 0.71284,4.56655 7.6979,11.55162 6.92863,6.92862 8.0749,7.6979 11.47042,7.6979 3.44146,0 4.60123,-0.81668 13.2154,-9.30592 l 9.44287,-9.30592 9.47186,9.30592 c 8.584,8.43361 9.82009,9.30592 13.18688,9.30592 3.31393,0 4.57253,-0.84044 11.65791,-7.78469 7.05145,-6.911 7.94291,-8.18665 7.94291,-11.366 0,-3.21596 -0.97372,-4.55503 -9.54512,-13.12643 l -9.54513,-9.54513 9.54513,-9.58107 c 12.68754,-12.73534 12.73038,-13.43342 1.51304,-24.65076 -11.21765,-11.21766 -11.91511,-11.17479 -24.65302,1.51532 l -9.58336,9.5474 -16.71744,-16.73917 -16.71745,-16.73917 22.38861,-22.38861 22.3886,-22.38861 15.13016,15.10654 c 14.17578,14.15364 15.36496,15.10653 18.85253,15.10653 3.34237,0 4.53231,-0.80992 11.65599,-7.93361 11.68113,-11.68113 11.82383,-11.08791 -7.26678,-30.20838 L 414.84229,256 430.04268,240.77584 c 19.09061,-19.12047 18.94791,-18.52725 7.26678,-30.20838 -7.12368,-7.12369 -8.31362,-7.93361 -11.65599,-7.93361 -3.48757,0 -4.67675,0.95289 -18.85253,15.10653 l -15.13016,15.10654 -22.3886,-22.38861 -22.38861,-22.38861 16.71745,-16.73917 16.71744,-16.73917 9.58336,9.5474 c 12.73791,12.69011 13.43537,12.73298 24.65302,1.51532 11.2266,-11.22659 11.1826,-11.94325 -1.51304,-24.63889 l -9.54513,-9.54513 9.54513,-9.58108 c 12.63421,-12.68179 12.68728,-13.42701 1.74053,-24.438342 C 407.68997,90.306383 406.64102,89.6 403.1344,89.6 c -3.54227,0 -4.62026,0.753507 -13.35419,9.33442 l -9.50086,9.33442 -9.29562,-9.33442 C 362.37326,90.287997 361.40135,89.6 357.79735,89.6 c -3.54311,0 -4.57863,0.687859 -11.58868,7.697902 -6.98506,6.985068 -7.6979,8.054758 -7.6979,11.551618 0,3.55246 0.73095,4.58742 9.35047,13.2394 l 9.35048,9.3857 -16.73643,16.71469 -16.73641,16.71469 -22.13621,-22.1198 -22.13622,-22.11982 14.13085,-14.30142 c 7.77198,-7.865778 14.67,-15.339613 15.32897,-16.608514 1.98199,-3.816569 0.30348,-7.15741 -7.62165,-15.169831 -6.88089,-6.956663 -7.89129,-7.630769 -11.4376,-7.630769 -3.69847,0 -4.6333,0.73779 -18.9917,14.988746 L 255.77358,96.931338 240.76139,81.942592 C 226.51265,67.716089 225.55293,66.953846 221.88943,66.953846 c -3.50443,0 -4.5685,0.708716 -11.55768,7.697902 -6.94779,6.947796 -7.6979,8.068157 -7.6979,11.497617 0,3.582166 0.85842,4.664619 14.99332,18.906075 l 14.99331,15.10635 -22.37745,22.37745 -22.37745,22.37746 -16.48067,-16.48067 -16.48067,-16.48067 8.49458,-8.62384 C 176.916,109.60868 176.97248,109.06124 166.02843,97.848921 158.61041,90.249095 157.66983,89.6 154.07512,89.6 c -3.60341,0 -4.62817,0.713704 -13.4026,9.33442 l -9.50087,9.33442 -9.29561,-9.33442 C 113.26557,90.287997 112.29366,89.6 108.68965,89.6 c -3.5431,0 -4.57862,0.687859 -11.588671,7.697902 -6.928626,6.928628 -7.697902,8.074898 -7.697902,11.470418 0,3.44146 0.81668,4.60123 9.305925,13.2154 l 9.305918,9.44287 -9.305918,9.47186 c -8.417584,8.56768 -9.305925,9.82479 -9.305925,13.16901 0,3.27384 0.855616,4.57637 7.473099,11.37646 4.110204,4.22362 8.510224,7.93962 9.777824,8.25777 3.95574,0.99283 7.56773,-1.2094 16.4806,-10.04828 l 8.62383,-8.55225 16.47793,16.47793 16.47791,16.47792 -22.11146,22.12784 -22.11146,22.12785 -14.80567,-14.591 c -9.562498,-9.42384 -15.73512,-14.76447 -17.430226,-15.08084 -4.110703,-0.76722 -7.678927,1.35359 -14.852377,8.82763 -5.8082,6.05159 -6.646154,7.39323 -6.646154,10.64109 0,3.47455 0.974552,4.69833 14.974108,18.80342 L 96.705139,256 81.731031,271.087 c -13.999556,14.10509 -14.974108,15.32887 -14.974108,18.80342 0,3.24786 0.837954,4.5895 6.646154,10.64109 7.17345,7.47404 10.741674,9.59485 14.852377,8.82763 1.695106,-0.31637 7.867728,-5.657 17.430226,-15.08084 l 14.80567,-14.591 22.11146,22.12785 22.11146,22.12784 -16.45552,16.45552 -16.45553,16.45553 -9.13853,-8.92476 c -5.11592,-4.99623 -10.33415,-9.21598 -11.85473,-9.58637 -3.83716,-0.93466 -7.03807,1.02439 -14.760729,9.03403 -5.796142,6.01153 -6.646154,7.36497 -6.646154,10.58237 0,3.33628 0.890328,4.59267 9.305925,13.13211 l 9.305918,9.44286 -9.305918,9.47186 c -8.476013,8.62715 -9.305925,9.80746 -9.305925,13.23496 0,3.38376 0.775987,4.53908 7.697902,11.461 7.010051,7.01004 8.045571,7.6979 11.588671,7.6979 3.60401,0 4.57592,-0.688 13.18639,-9.33442 l 9.29561,-9.33442 9.50087,9.33442 c 8.77443,8.62071 9.79919,9.33442 13.4026,9.33442 3.59471,0 4.53529,-0.6491 11.95331,-8.24892 10.94405,-11.21232 10.88757,-11.75976 -2.62961,-25.4826 l -8.49458,-8.62384 16.48067,-16.48067 16.48067,-16.48067 22.37745,22.37746 22.37745,22.37745 -14.99331,15.10635 c -14.1349,14.24146 -14.99332,15.32391 -14.99332,18.90607 0,3.42947 0.75011,4.54982 7.6979,11.49762 6.98918,6.98919 8.05325,7.6979 11.55768,7.6979 3.6635,0 4.62322,-0.76224 18.87196,-14.98874 z"
     id="path4610"
     inkscape:connector-curvature="0" />
  <path
     style="fill:#000000;fill-opacity:0;stroke-width:0.98461539"
     d="M 241.03385,510.94306 C 149.62229,505.73186 67.186583,451.02088 26.924386,368.84276 15.043309,344.5926 7.3986294,320.38404 3.1056186,293.41538 0.54881122,277.35354 0.51813465,234.74912 3.0518541,218.74586 11.990711,162.28701 38.004237,111.77707 78.203652,72.825152 91.602095,59.842497 99.42786,53.543974 115.55364,42.764223 152.19114,18.272813 196.49755,3.5408929 240.78744,1.1238614 314.27262,-2.8864435 383.1591,22.972497 435.12032,74.07348 c 59.67701,58.68905 86.7576,142.53245 72.69703,225.07511 -15.88826,93.27223 -83.31169,171.02841 -173.37731,199.94768 -19.70231,6.32624 -40.52165,10.41764 -57.96004,11.39023 -5.68615,0.31713 -12.99692,0.7201 -16.24615,0.89547 -3.24923,0.17538 -11.88923,-0.0222 -19.2,-0.43891 z m -0.27246,-80.88565 15.01219,-14.98875 15.10174,14.98875 c 14.3584,14.25095 15.29323,14.98874 18.9917,14.98874 3.54631,0 4.55671,-0.6741 11.4376,-7.63077 7.91134,-7.99847 9.5951,-11.33929 7.64556,-15.16983 -0.64581,-1.2689 -7.55033,-8.73623 -15.34341,-16.59407 l -14.16921,-14.28699 22.15066,-22.13424 22.15066,-22.13425 16.73641,16.71469 16.73643,16.71469 -9.35048,9.3857 c -8.61952,8.65198 -9.35047,9.68694 -9.35047,13.2394 0,3.49686 0.71284,4.56655 7.6979,11.55162 6.92863,6.92862 8.0749,7.6979 11.47042,7.6979 3.44146,0 4.60123,-0.81668 13.2154,-9.30592 l 9.44287,-9.30592 9.47186,9.30592 c 8.584,8.43361 9.82009,9.30592 13.18688,9.30592 3.31393,0 4.57253,-0.84044 11.65791,-7.78469 7.05145,-6.911 7.94291,-8.18665 7.94291,-11.366 0,-3.21596 -0.97372,-4.55503 -9.54512,-13.12643 l -9.54513,-9.54513 9.54513,-9.58107 c 12.68754,-12.73534 12.73038,-13.43342 1.51304,-24.65076 -11.21765,-11.21766 -11.91511,-11.17479 -24.65302,1.51532 l -9.58336,9.5474 -16.71744,-16.73917 -16.71745,-16.73917 22.38861,-22.38861 22.3886,-22.38861 15.13016,15.10654 c 14.17578,14.15364 15.36496,15.10653 18.85253,15.10653 3.34237,0 4.53231,-0.80992 11.65599,-7.93361 11.68113,-11.68113 11.82383,-11.08791 -7.26678,-30.20838 L 414.84229,256 430.04268,240.77584 c 19.09061,-19.12047 18.94791,-18.52725 7.26678,-30.20838 -7.12368,-7.12369 -8.31362,-7.93361 -11.65599,-7.93361 -3.48757,0 -4.67675,0.95289 -18.85253,15.10653 l -15.13016,15.10654 -22.3886,-22.38861 -22.38861,-22.38861 16.71745,-16.73917 16.71744,-16.73917 9.58336,9.5474 c 12.73791,12.69011 13.43537,12.73298 24.65302,1.51532 11.2266,-11.22659 11.1826,-11.94325 -1.51304,-24.63889 l -9.54513,-9.54513 9.54513,-9.58108 c 12.63421,-12.68179 12.68728,-13.42701 1.74053,-24.438342 C 407.68997,90.306383 406.64102,89.6 403.1344,89.6 c -3.54227,0 -4.62026,0.753507 -13.35419,9.33442 l -9.50086,9.33442 -9.29562,-9.33442 C 362.37326,90.287997 361.40135,89.6 357.79735,89.6 c -3.54311,0 -4.57863,0.687859 -11.58868,7.697902 -6.98506,6.985068 -7.6979,8.054758 -7.6979,11.551618 0,3.55246 0.73095,4.58742 9.35047,13.2394 l 9.35048,9.3857 -16.73643,16.71469 -16.73641,16.71469 -22.13621,-22.1198 -22.13622,-22.11982 14.13085,-14.30142 c 7.77198,-7.865778 14.67,-15.339613 15.32897,-16.608514 1.98199,-3.816569 0.30348,-7.15741 -7.62165,-15.169831 -6.88089,-6.956663 -7.89129,-7.630769 -11.4376,-7.630769 -3.69847,0 -4.6333,0.73779 -18.9917,14.988746 L 255.77358,96.931338 240.76139,81.942592 C 226.51265,67.716089 225.55293,66.953846 221.88943,66.953846 c -3.50443,0 -4.5685,0.708716 -11.55768,7.697902 -6.94779,6.947796 -7.6979,8.068157 -7.6979,11.497617 0,3.582166 0.85842,4.664619 14.99332,18.906075 l 14.99331,15.10635 -22.37745,22.37745 -22.37745,22.37746 -16.48067,-16.48067 -16.48067,-16.48067 8.49458,-8.62384 C 176.916,109.60868 176.97248,109.06124 166.02843,97.848921 158.61041,90.249095 157.66983,89.6 154.07512,89.6 c -3.60341,0 -4.62817,0.713704 -13.4026,9.33442 l -9.50087,9.33442 -9.29561,-9.33442 C 113.26557,90.287997 112.29366,89.6 108.68965,89.6 c -3.5431,0 -4.57862,0.687859 -11.588671,7.697902 -6.928626,6.928628 -7.697902,8.074898 -7.697902,11.470418 0,3.44146 0.81668,4.60123 9.305925,13.2154 l 9.305918,9.44287 -9.305918,9.47186 c -8.417584,8.56768 -9.305925,9.82479 -9.305925,13.16901 0,3.27384 0.855616,4.57637 7.473099,11.37646 4.110204,4.22362 8.510224,7.93962 9.777824,8.25777 3.95574,0.99283 7.56773,-1.2094 16.4806,-10.04828 l 8.62383,-8.55225 16.47793,16.47793 16.47791,16.47792 -22.11146,22.12784 -22.11146,22.12785 -14.80567,-14.591 c -9.562498,-9.42384 -15.73512,-14.76447 -17.430226,-15.08084 -4.110703,-0.76722 -7.678927,1.35359 -14.852377,8.82763 -5.8082,6.05159 -6.646154,7.39323 -6.646154,10.64109 0,3.47455 0.974552,4.69833 14.974108,18.80342 L 96.705139,256 81.731031,271.087 c -13.999556,14.10509 -14.974108,15.32887 -14.974108,18.80342 0,3.24786 0.837954,4.5895 6.646154,10.64109 7.17345,7.47404 10.741674,9.59485 14.852377,8.82763 1.695106,-0.31637 7.867728,-5.657 17.430226,-15.08084 l 14.80567,-14.591 22.11146,22.12785 22.11146,22.12784 -16.45552,16.45552 -16.45553,16.45553 -9.13853,-8.92476 c -5.11592,-4.99623 -10.33415,-9.21598 -11.85473,-9.58637 -3.83716,-0.93466 -7.03807,1.02439 -14.760729,9.03403 -5.796142,6.01153 -6.646154,7.36497 -6.646154,10.58237 0,3.33628 0.890328,4.59267 9.305925,13.13211 l 9.305918,9.44286 -9.305918,9.47186 c -8.476013,8.62715 -9.305925,9.80746 -9.305925,13.23496 0,3.38376 0.775987,4.53908 7.697902,11.461 7.010051,7.01004 8.045571,7.6979 11.588671,7.6979 3.60401,0 4.57592,-0.688 13.18639,-9.33442 l 9.29561,-9.33442 9.50087,9.33442 c 8.77443,8.62071 9.79919,9.33442 13.4026,9.33442 3.59471,0 4.53529,-0.6491 11.95331,-8.24892 10.94405,-11.21232 10.88757,-11.75976 -2.62961,-25.4826 l -8.49458,-8.62384 16.48067,-16.48067 16.48067,-16.48067 22.37745,22.37746 22.37745,22.37745 -14.99331,15.10635 c -14.1349,14.24146 -14.99332,15.32391 -14.99332,18.90607 0,3.42947 0.75011,4.54982 7.6979,11.49762 6.98918,6.98919 8.05325,7.6979 11.55768,7.6979 3.6635,0 4.62322,-0.76224 18.87196,-14.98874 z"
     id="path4612"
     inkscape:connector-curvature="0" />
  <path
     style="fill:#000000;fill-opacity:0;stroke-width:0.98461539"
     d="m 211.22613,436.40899 c -11.17487,-11.2408 -11.3382,-10.60538 7.63863,-29.71661 l 15.2463,-15.35428 -22.39262,-22.37674 c -12.31594,-12.30721 -22.82754,-22.37674 -23.35911,-22.37674 -0.53158,0 -8.60401,7.62816 -17.93874,16.95146 l -16.97226,16.95146 9.82353,9.98272 c 12.52992,12.73298 12.53913,12.83372 2.12562,23.24722 -10.75602,10.75603 -11.40187,10.70542 -24.03833,-1.88362 l -9.61761,-9.58153 -9.61762,9.58153 c -12.67514,12.62757 -13.43251,12.68812 -24.128558,1.92898 -10.550112,-10.61237 -10.508634,-11.12601 1.933858,-23.9486 l 9.54153,-9.83301 -9.54153,-9.57746 c -12.45931,-12.50624 -12.4717,-12.73286 -1.292602,-23.6445 5.415352,-5.28579 9.015732,-8.05158 10.481202,-8.05158 1.50374,0 5.4902,3.20598 12.21485,9.82338 l 9.98257,9.82338 17.44294,-17.46316 17.44294,-17.46314 -22.40688,-22.39101 c -12.32378,-12.31504 -22.84122,-22.39099 -23.37209,-22.39099 -0.53086,0 -7.69572,6.72 -15.92189,14.93334 -18.532983,18.50404 -17.731259,18.30565 -28.941098,7.16156 -11.147897,-11.08251 -11.402656,-10.11297 7.678527,-29.22216 L 98.733841,256 83.237689,240.48111 c -19.081183,-19.10919 -18.826424,-18.13965 -7.678527,-29.22216 11.209839,-11.14409 10.408115,-11.34248 28.941098,7.16156 8.22617,8.21334 15.39103,14.93334 15.92189,14.93334 0.53087,0 11.04831,-10.07595 23.37209,-22.39099 l 22.40688,-22.39101 -17.44294,-17.46314 -17.44294,-17.46316 -9.98257,9.82338 c -5.49042,5.40286 -10.73343,9.82338 -11.65113,9.82338 -3.13137,0 -7.12856,-2.82116 -13.213298,-9.32577 -8.750342,-9.35414 -8.611353,-10.25251 3.460978,-22.37031 l 9.54153,-9.57747 -9.54153,-9.833 C 87.449249,109.32454 87.405194,108.76496 98.040245,98.192286 108.71357,87.581562 109.31852,87.630735 122.05523,100.1443 l 9.73015,9.55969 9.59569,-9.55969 c 12.61172,-12.564385 13.2633,-12.614897 24.01641,-1.861782 10.41351,10.413512 10.4043,10.514242 -2.12562,23.247222 l -9.82353,9.98272 16.97226,16.95146 c 9.33473,9.32331 17.40716,16.95146 17.93874,16.95146 0.53157,0 11.04317,-10.06953 23.35911,-22.37674 l 22.39262,-22.37674 -15.2463,-15.35428 C 199.8495,86.157693 200.00071,86.750332 211.27101,75.546131 c 11.20593,-11.140203 10.66555,-11.272562 29.23865,7.161561 8.18432,8.123077 15.31131,14.769231 15.83777,14.769231 0.52646,0 7.59226,-6.646154 15.7018,-14.769231 18.29164,-18.322184 17.90867,-18.220273 28.67574,-7.630769 11.47394,11.284712 11.6796,10.435237 -7.10708,29.354967 l -15.61813,15.72873 22.86694,22.86694 22.86693,22.86693 17.23075,-17.20965 17.23076,-17.20966 -8.80689,-8.87605 c -10.02401,-10.10272 -11.43172,-12.6637 -9.2725,-16.86887 1.98317,-3.86234 10.87384,-12.774899 14.49108,-14.52678 4.34089,-2.102356 6.79451,-0.755794 16.90868,9.27959 l 8.88166,8.81248 8.34911,-8.47419 c 12.83316,-13.025416 14.90772,-13.319862 24.91611,-3.536383 6.66446,6.514703 8.90473,10.235673 7.9998,13.287313 -0.35329,1.19139 -4.80782,6.38426 -9.89895,11.5397 l -9.2566,9.37354 8.44231,8.34954 c 9.31408,9.21173 11.68416,12.75854 10.71139,16.02952 -0.89935,3.02409 -14.03394,16.18129 -16.86207,16.89111 -3.41805,0.85788 -5.75715,-0.70187 -15.59432,-10.39851 l -8.87605,-8.74925 -17.20966,17.23076 -17.20965,17.23074 22.86631,22.86633 22.86633,22.86631 15.03477,-14.87505 c 8.26912,-8.18128 16.00955,-15.17265 17.20094,-15.53639 3.0584,-0.93373 6.77309,1.30719 13.22955,7.98082 6.52575,6.74525 8.09259,9.45297 7.18669,12.41958 -0.36583,1.19801 -7.35686,8.94175 -15.53561,17.20832 l -14.87045,15.03014 14.89151,15.00063 c 8.19034,8.25035 15.18136,15.98082 15.53561,17.17883 0.87959,2.97463 -0.695,5.68777 -7.20775,12.41958 -6.45646,6.67363 -10.17115,8.91455 -13.22955,7.98082 -1.19139,-0.36374 -8.93182,-7.35511 -17.20094,-15.53639 l -15.03477,-14.87505 -22.86633,22.86631 -22.86631,22.86633 17.21009,17.23119 17.21009,17.23119 9.58321,-9.54723 c 12.57061,-12.52345 13.50025,-12.61315 23.87849,-2.30418 4.01045,3.98368 7.55333,8.28536 7.87306,9.55927 0.86805,3.4586 -1.38598,6.83803 -10.71458,16.06413 l -8.44231,8.34954 9.2566,9.37354 c 5.09113,5.15544 9.54566,10.34831 9.89895,11.5397 0.93799,3.16315 -1.37892,6.87763 -8.62883,13.83383 -5.47419,5.25241 -6.93992,6.15384 -10.00617,6.15384 -3.20552,0 -4.62,-1.00044 -13.13138,-9.28771 l -9.53889,-9.28771 -9.46207,9.28771 c -12.47304,12.24319 -13.19656,12.29291 -23.7918,1.63517 -10.58037,-10.6428 -10.53217,-11.30818 1.72237,-23.78124 l 9.33004,-9.49641 -17.21092,-17.18984 -17.21091,-17.18984 -22.86693,22.86694 -22.86694,22.86693 15.61813,15.72873 c 18.78668,18.91973 18.58102,18.07025 7.10708,29.35497 -10.76707,10.5895 -10.3841,10.69141 -28.67574,-7.63077 -8.10954,-8.12308 -15.17534,-14.76923 -15.7018,-14.76923 -0.52646,0 -7.65345,6.64615 -15.83777,14.76923 -18.61167,18.4724 -18.11452,18.35157 -29.28353,7.11668 z m 67.7181,-89.82706 22.63279,-22.64885 -22.88697,-22.88698 -22.88697,-22.88696 -22.88697,22.88696 -22.88698,22.88698 22.6328,22.64885 c 12.44803,12.45686 22.86155,22.64884 23.14115,22.64884 0.2796,0 10.69312,-10.19198 23.14115,-22.64884 z m -67.93847,-67.93846 22.6328,-22.64886 -22.88697,-22.88697 -22.88697,-22.88696 -22.88698,22.88696 -22.88696,22.88697 22.63279,22.64886 c 12.44803,12.45686 22.86154,22.64884 23.14115,22.64884 0.2796,0 10.69312,-10.19198 23.14114,-22.64884 z m 135.87693,0 22.63279,-22.64886 -22.88697,-22.88697 -22.88697,-22.88696 -22.88697,22.88696 -22.88697,22.88697 22.63279,22.64886 c 12.44803,12.45686 22.86155,22.64884 23.14115,22.64884 0.2796,0 10.69312,-10.19198 23.14115,-22.64884 z m -67.93846,-67.93847 22.63279,-22.64885 -22.88697,-22.88696 -22.88697,-22.88697 -22.88697,22.88697 -22.88698,22.88696 22.6328,22.64885 c 12.44803,12.45687 22.86155,22.64885 23.14115,22.64885 0.2796,0 10.69312,-10.19198 23.14115,-22.64885 z"
     id="path4614"
     inkscape:connector-curvature="0" />
  <path
     style="fill:#000000;fill-opacity:0;stroke-width:0.98461539"
     d="M 241.03385,510.94306 C 149.62229,505.73186 67.186583,451.02088 26.924386,368.84276 15.043309,344.5926 7.3986294,320.38404 3.1056186,293.41538 0.54881122,277.35354 0.51813465,234.74912 3.0518541,218.74586 11.990711,162.28701 38.004237,111.77707 78.203652,72.825152 91.602095,59.842497 99.42786,53.543974 115.55364,42.764223 152.19114,18.272813 196.49755,3.5408929 240.78744,1.1238614 314.27262,-2.8864435 383.1591,22.972497 435.12032,74.07348 c 59.67701,58.68905 86.7576,142.53245 72.69703,225.07511 -15.88826,93.27223 -83.31169,171.02841 -173.37731,199.94768 -19.70231,6.32624 -40.52165,10.41764 -57.96004,11.39023 -5.68615,0.31713 -12.99692,0.7201 -16.24615,0.89547 -3.24923,0.17538 -11.88923,-0.0222 -19.2,-0.43891 z m -0.27246,-80.88565 15.01219,-14.98875 15.10174,14.98875 c 14.3584,14.25095 15.29323,14.98874 18.9917,14.98874 3.54631,0 4.55671,-0.6741 11.4376,-7.63077 7.91134,-7.99847 9.5951,-11.33929 7.64556,-15.16983 -0.64581,-1.2689 -7.55033,-8.73623 -15.34341,-16.59407 l -14.16921,-14.28699 22.15066,-22.13424 22.15066,-22.13425 16.73641,16.71469 16.73643,16.71469 -9.35048,9.3857 c -8.61952,8.65198 -9.35047,9.68694 -9.35047,13.2394 0,3.49686 0.71284,4.56655 7.6979,11.55162 6.92863,6.92862 8.0749,7.6979 11.47042,7.6979 3.44146,0 4.60123,-0.81668 13.2154,-9.30592 l 9.44287,-9.30592 9.47186,9.30592 c 8.584,8.43361 9.82009,9.30592 13.18688,9.30592 3.31393,0 4.57253,-0.84044 11.65791,-7.78469 7.05145,-6.911 7.94291,-8.18665 7.94291,-11.366 0,-3.21596 -0.97372,-4.55503 -9.54512,-13.12643 l -9.54513,-9.54513 9.54513,-9.58107 c 12.68754,-12.73534 12.73038,-13.43342 1.51304,-24.65076 -11.21765,-11.21766 -11.91511,-11.17479 -24.65302,1.51532 l -9.58336,9.5474 -16.71744,-16.73917 -16.71745,-16.73917 22.38861,-22.38861 22.3886,-22.38861 15.13016,15.10654 c 14.17578,14.15364 15.36496,15.10653 18.85253,15.10653 3.34237,0 4.53231,-0.80992 11.65599,-7.93361 11.68113,-11.68113 11.82383,-11.08791 -7.26678,-30.20838 L 414.84229,256 430.04268,240.77584 c 19.09061,-19.12047 18.94791,-18.52725 7.26678,-30.20838 -7.12368,-7.12369 -8.31362,-7.93361 -11.65599,-7.93361 -3.48757,0 -4.67675,0.95289 -18.85253,15.10653 l -15.13016,15.10654 -22.3886,-22.38861 -22.38861,-22.38861 16.71745,-16.73917 16.71744,-16.73917 9.58336,9.5474 c 12.73791,12.69011 13.43537,12.73298 24.65302,1.51532 11.2266,-11.22659 11.1826,-11.94325 -1.51304,-24.63889 l -9.54513,-9.54513 9.54513,-9.58108 c 12.63421,-12.68179 12.68728,-13.42701 1.74053,-24.438342 C 407.68997,90.306383 406.64102,89.6 403.1344,89.6 c -3.54227,0 -4.62026,0.753507 -13.35419,9.33442 l -9.50086,9.33442 -9.29562,-9.33442 C 362.37326,90.287997 361.40135,89.6 357.79735,89.6 c -3.54311,0 -4.57863,0.687859 -11.58868,7.697902 -6.98506,6.985068 -7.6979,8.054758 -7.6979,11.551618 0,3.55246 0.73095,4.58742 9.35047,13.2394 l 9.35048,9.3857 -16.73643,16.71469 -16.73641,16.71469 -22.13621,-22.1198 -22.13622,-22.11982 14.13085,-14.30142 c 7.77198,-7.865778 14.67,-15.339613 15.32897,-16.608514 1.98199,-3.816569 0.30348,-7.15741 -7.62165,-15.169831 -6.88089,-6.956663 -7.89129,-7.630769 -11.4376,-7.630769 -3.69847,0 -4.6333,0.73779 -18.9917,14.988746 L 255.77358,96.931338 240.76139,81.942592 C 226.51265,67.716089 225.55293,66.953846 221.88943,66.953846 c -3.50443,0 -4.5685,0.708716 -11.55768,7.697902 -6.94779,6.947796 -7.6979,8.068157 -7.6979,11.497617 0,3.582166 0.85842,4.664619 14.99332,18.906075 l 14.99331,15.10635 -22.37745,22.37745 -22.37745,22.37746 -16.48067,-16.48067 -16.48067,-16.48067 8.49458,-8.62384 C 176.916,109.60868 176.97248,109.06124 166.02843,97.848921 158.61041,90.249095 157.66983,89.6 154.07512,89.6 c -3.60341,0 -4.62817,0.713704 -13.4026,9.33442 l -9.50087,9.33442 -9.29561,-9.33442 C 113.26557,90.287997 112.29366,89.6 108.68965,89.6 c -3.5431,0 -4.57862,0.687859 -11.588671,7.697902 -6.928626,6.928628 -7.697902,8.074898 -7.697902,11.470418 0,3.44146 0.81668,4.60123 9.305925,13.2154 l 9.305918,9.44287 -9.305918,9.47186 c -8.417584,8.56768 -9.305925,9.82479 -9.305925,13.16901 0,3.27384 0.855616,4.57637 7.473099,11.37646 4.110204,4.22362 8.510224,7.93962 9.777824,8.25777 3.95574,0.99283 7.56773,-1.2094 16.4806,-10.04828 l 8.62383,-8.55225 16.47793,16.47793 16.47791,16.47792 -22.11146,22.12784 -22.11146,22.12785 -14.80567,-14.591 c -9.562498,-9.42384 -15.73512,-14.76447 -17.430226,-15.08084 -4.110703,-0.76722 -7.678927,1.35359 -14.852377,8.82763 -5.8082,6.05159 -6.646154,7.39323 -6.646154,10.64109 0,3.47455 0.974552,4.69833 14.974108,18.80342 L 96.705139,256 81.731031,271.087 c -13.999556,14.10509 -14.974108,15.32887 -14.974108,18.80342 0,3.24786 0.837954,4.5895 6.646154,10.64109 7.17345,7.47404 10.741674,9.59485 14.852377,8.82763 1.695106,-0.31637 7.867728,-5.657 17.430226,-15.08084 l 14.80567,-14.591 22.11146,22.12785 22.11146,22.12784 -16.45552,16.45552 -16.45553,16.45553 -9.13853,-8.92476 c -5.11592,-4.99623 -10.33415,-9.21598 -11.85473,-9.58637 -3.83716,-0.93466 -7.03807,1.02439 -14.760729,9.03403 -5.796142,6.01153 -6.646154,7.36497 -6.646154,10.58237 0,3.33628 0.890328,4.59267 9.305925,13.13211 l 9.305918,9.44286 -9.305918,9.47186 c -8.476013,8.62715 -9.305925,9.80746 -9.305925,13.23496 0,3.38376 0.775987,4.53908 7.697902,11.461 7.010051,7.01004 8.045571,7.6979 11.588671,7.6979 3.60401,0 4.57592,-0.688 13.18639,-9.33442 l 9.29561,-9.33442 9.50087,9.33442 c 8.77443,8.62071 9.79919,9.33442 13.4026,9.33442 3.59471,0 4.53529,-0.6491 11.95331,-8.24892 10.94405,-11.21232 10.88757,-11.75976 -2.62961,-25.4826 l -8.49458,-8.62384 16.48067,-16.48067 16.48067,-16.48067 22.37745,22.37746 22.37745,22.37745 -14.99331,15.10635 c -14.1349,14.24146 -14.99332,15.32391 -14.99332,18.90607 0,3.42947 0.75011,4.54982 7.6979,11.49762 6.98918,6.98919 8.05325,7.6979 11.55768,7.6979 3.6635,0 4.62322,-0.76224 18.87196,-14.98874 z"
     id="path4616"
     inkscape:connector-curvature="0" />
  <path
     style="fill:#000000;fill-opacity:1;stroke-width:0.98461539"
     d="M 241.03385,510.94306 C 149.62229,505.73186 67.186583,451.02088 26.924386,368.84276 15.043309,344.5926 7.3986294,320.38404 3.1056186,293.41538 0.54881122,277.35354 0.51813465,234.74912 3.0518541,218.74586 11.990711,162.28701 38.004237,111.77707 78.203652,72.825152 91.602095,59.842497 99.42786,53.543974 115.55364,42.764223 152.19114,18.272813 196.49755,3.5408929 240.78744,1.1238614 314.27262,-2.8864435 383.1591,22.972497 435.12032,74.07348 c 59.67701,58.68905 86.7576,142.53245 72.69703,225.07511 -15.88826,93.27223 -83.31169,171.02841 -173.37731,199.94768 -19.70231,6.32624 -40.52165,10.41764 -57.96004,11.39023 -5.68615,0.31713 -12.99692,0.7201 -16.24615,0.89547 -3.24923,0.17538 -11.88923,-0.0222 -19.2,-0.43891 z m -0.27246,-80.88565 15.01219,-14.98875 15.10174,14.98875 c 14.3584,14.25095 15.29323,14.98874 18.9917,14.98874 3.54631,0 4.55671,-0.6741 11.4376,-7.63077 7.91134,-7.99847 9.5951,-11.33929 7.64556,-15.16983 -0.64581,-1.2689 -7.55033,-8.73623 -15.34341,-16.59407 l -14.16921,-14.28699 22.15066,-22.13424 22.15066,-22.13425 16.73641,16.71469 16.73643,16.71469 -9.35048,9.3857 c -8.61952,8.65198 -9.35047,9.68694 -9.35047,13.2394 0,3.49686 0.71284,4.56655 7.6979,11.55162 6.92863,6.92862 8.0749,7.6979 11.47042,7.6979 3.44146,0 4.60123,-0.81668 13.2154,-9.30592 l 9.44287,-9.30592 9.47186,9.30592 c 8.584,8.43361 9.82009,9.30592 13.18688,9.30592 3.31393,0 4.57253,-0.84044 11.65791,-7.78469 7.05145,-6.911 7.94291,-8.18665 7.94291,-11.366 0,-3.21596 -0.97372,-4.55503 -9.54512,-13.12643 l -9.54513,-9.54513 9.54513,-9.58107 c 12.68754,-12.73534 12.73038,-13.43342 1.51304,-24.65076 -11.21765,-11.21766 -11.91511,-11.17479 -24.65302,1.51532 l -9.58336,9.5474 -16.71744,-16.73917 -16.71745,-16.73917 22.38861,-22.38861 22.3886,-22.38861 15.13016,15.10654 c 14.17578,14.15364 15.36496,15.10653 18.85253,15.10653 3.34237,0 4.53231,-0.80992 11.65599,-7.93361 11.68113,-11.68113 11.82383,-11.08791 -7.26678,-30.20838 L 414.84229,256 430.04268,240.77584 c 19.09061,-19.12047 18.94791,-18.52725 7.26678,-30.20838 -7.12368,-7.12369 -8.31362,-7.93361 -11.65599,-7.93361 -3.48757,0 -4.67675,0.95289 -18.85253,15.10653 l -15.13016,15.10654 -22.3886,-22.38861 -22.38861,-22.38861 16.71745,-16.73917 16.71744,-16.73917 9.58336,9.5474 c 12.73791,12.69011 13.43537,12.73298 24.65302,1.51532 11.2266,-11.22659 11.1826,-11.94325 -1.51304,-24.63889 l -9.54513,-9.54513 9.54513,-9.58108 c 12.63421,-12.68179 12.68728,-13.42701 1.74053,-24.438342 C 407.68997,90.306383 406.64102,89.6 403.1344,89.6 c -3.54227,0 -4.62026,0.753507 -13.35419,9.33442 l -9.50086,9.33442 -9.29562,-9.33442 C 362.37326,90.287997 361.40135,89.6 357.79735,89.6 c -3.54311,0 -4.57863,0.687859 -11.58868,7.697902 -6.98506,6.985068 -7.6979,8.054758 -7.6979,11.551618 0,3.55246 0.73095,4.58742 9.35047,13.2394 l 9.35048,9.3857 -16.73643,16.71469 -16.73641,16.71469 -22.13621,-22.1198 -22.13622,-22.11982 14.13085,-14.30142 c 7.77198,-7.865778 14.67,-15.339613 15.32897,-16.608514 1.98199,-3.816569 0.30348,-7.15741 -7.62165,-15.169831 -6.88089,-6.956663 -7.89129,-7.630769 -11.4376,-7.630769 -3.69847,0 -4.6333,0.73779 -18.9917,14.988746 L 255.77358,96.931338 240.76139,81.942592 C 226.51265,67.716089 225.55293,66.953846 221.88943,66.953846 c -3.50443,0 -4.5685,0.708716 -11.55768,7.697902 -6.94779,6.947796 -7.6979,8.068157 -7.6979,11.497617 0,3.582166 0.85842,4.664619 14.99332,18.906075 l 14.99331,15.10635 -22.37745,22.37745 -22.37745,22.37746 -16.48067,-16.48067 -16.48067,-16.48067 8.49458,-8.62384 C 176.916,109.60868 176.97248,109.06124 166.02843,97.848921 158.61041,90.249095 157.66983,89.6 154.07512,89.6 c -3.60341,0 -4.62817,0.713704 -13.4026,9.33442 l -9.50087,9.33442 -9.29561,-9.33442 C 113.26557,90.287997 112.29366,89.6 108.68965,89.6 c -3.5431,0 -4.57862,0.687859 -11.588671,7.697902 -6.928626,6.928628 -7.697902,8.074898 -7.697902,11.470418 0,3.44146 0.81668,4.60123 9.305925,13.2154 l 9.305918,9.44287 -9.305918,9.47186 c -8.417584,8.56768 -9.305925,9.82479 -9.305925,13.16901 0,3.27384 0.855616,4.57637 7.473099,11.37646 4.110204,4.22362 8.510224,7.93962 9.777824,8.25777 3.95574,0.99283 7.56773,-1.2094 16.4806,-10.04828 l 8.62383,-8.55225 16.47793,16.47793 16.47791,16.47792 -22.11146,22.12784 -22.11146,22.12785 -14.80567,-14.591 c -9.562498,-9.42384 -15.73512,-14.76447 -17.430226,-15.08084 -4.110703,-0.76722 -7.678927,1.35359 -14.852377,8.82763 -5.8082,6.05159 -6.646154,7.39323 -6.646154,10.64109 0,3.47455 0.974552,4.69833 14.974108,18.80342 L 96.705139,256 81.731031,271.087 c -13.999556,14.10509 -14.974108,15.32887 -14.974108,18.80342 0,3.24786 0.837954,4.5895 6.646154,10.64109 7.17345,7.47404 10.741674,9.59485 14.852377,8.82763 1.695106,-0.31637 7.867728,-5.657 17.430226,-15.08084 l 14.80567,-14.591 22.11146,22.12785 22.11146,22.12784 -16.45552,16.45552 -16.45553,16.45553 -9.13853,-8.92476 c -5.11592,-4.99623 -10.33415,-9.21598 -11.85473,-9.58637 -3.83716,-0.93466 -7.03807,1.02439 -14.760729,9.03403 -5.796142,6.01153 -6.646154,7.36497 -6.646154,10.58237 0,3.33628 0.890328,4.59267 9.305925,13.13211 l 9.305918,9.44286 -9.305918,9.47186 c -8.476013,8.62715 -9.305925,9.80746 -9.305925,13.23496 0,3.38376 0.775987,4.53908 7.697902,11.461 7.010051,7.01004 8.045571,7.6979 11.588671,7.6979 3.60401,0 4.57592,-0.688 13.18639,-9.33442 l 9.29561,-9.33442 9.50087,9.33442 c 8.77443,8.62071 9.79919,9.33442 13.4026,9.33442 3.59471,0 4.53529,-0.6491 11.95331,-8.24892 10.94405,-11.21232 10.88757,-11.75976 -2.62961,-25.4826 l -8.49458,-8.62384 16.48067,-16.48067 16.48067,-16.48067 22.37745,22.37746 22.37745,22.37745 -14.99331,15.10635 c -14.1349,14.24146 -14.99332,15.32391 -14.99332,18.90607 0,3.42947 0.75011,4.54982 7.6979,11.49762 6.98918,6.98919 8.05325,7.6979 11.55768,7.6979 3.6635,0 4.62322,-0.76224 18.87196,-14.98874 z"
     id="path4618"
     inkscape:connector-curvature="0" />
  <path
     style="fill:#000000;fill-opacity:1;stroke-width:0.98461539"
     d="M 239.87334,510.90758 C 206.55659,509.06746 174.63894,500.50112 143.06462,484.92521 79.177607,453.40915 30.866673,396.26264 11.130391,328.86154 3.7848603,303.77592 0.78769231,282.66168 0.78769231,256 0.78769231,204.06385 15.014319,156.95871 43.609273,114.21538 68.970502,76.305784 102.87018,46.724314 144.04923,26.569676 184.10665,6.9640059 224.85575,-1.261599 270.37886,1.0688049 379.28142,6.6437093 473.41825,82.697623 502.42711,188.54246 c 11.9945,43.76448 11.9945,91.1506 0,134.91508 -16.14635,58.91331 -53.72854,110.99285 -104.71331,145.10653 -46.42489,31.06268 -100.3182,45.52052 -157.84046,42.34351 z m 0.82953,-80.82242 15.07379,-14.961 15.15761,14.961 c 14.07098,13.88845 15.41993,14.96099 18.81664,14.96099 3.18009,0 4.56125,-0.8699 10.55215,-6.64615 7.60243,-7.33004 10.09223,-11.19249 9.2715,-14.38297 -0.29844,-1.16014 -7.16844,-9.01446 -15.26665,-17.45405 l -14.72403,-15.34471 22.0775,-22.06113 22.0775,-22.06114 16.71614,16.69443 16.71613,16.69444 -9.33019,9.49657 c -8.49983,8.65139 -9.33019,9.83147 -9.33019,13.25966 0,3.38376 0.77598,4.53908 7.6979,11.461 6.92863,6.92862 8.0749,7.6979 11.47042,7.6979 3.44146,0 4.60123,-0.81668 13.2154,-9.30592 l 9.44287,-9.30592 9.47186,9.30592 c 8.55169,8.40188 9.82935,9.30592 13.15167,9.30592 3.20264,0 4.57773,-0.8618 10.60446,-6.64615 7.82471,-7.51002 9.90133,-11.17435 8.48527,-14.97284 -0.51344,-1.37725 -4.89913,-6.50084 -9.746,-11.38575 l -8.81247,-8.88166 8.47553,-8.34911 c 9.41792,-9.27742 11.93213,-13.48652 10.14677,-16.98698 -1.62891,-3.19371 -12.74058,-14.40381 -15.96058,-16.10197 -1.61465,-0.85153 -3.6544,-1.17475 -4.92308,-0.78011 -1.1914,0.37061 -6.39092,4.81356 -11.5545,9.87323 l -9.38834,9.19941 -16.69719,-16.71888 -16.69719,-16.71889 22.37386,-22.37386 22.37385,-22.37385 15.10636,14.99332 c 14.12405,14.01836 15.34803,14.99332 18.82278,14.99332 3.24786,0 4.5895,-0.83796 10.64109,-6.64615 7.82223,-7.50765 9.90037,-11.17364 8.48761,-14.97284 -0.51214,-1.37725 -7.43927,-9.03947 -15.3936,-17.02716 L 414.84309,256 429.30552,241.47692 c 7.95433,-7.98769 14.88146,-15.64991 15.3936,-17.02716 1.41276,-3.7992 -0.66538,-7.46519 -8.48761,-14.97284 -6.05159,-5.80819 -7.39323,-6.64615 -10.64109,-6.64615 -3.47475,0 -4.69873,0.97496 -18.82278,14.99332 l -15.10636,14.99332 -22.37385,-22.37385 -22.37386,-22.37386 16.717,-16.73873 16.71701,-16.73872 8.87621,8.80704 c 10.01124,9.93322 13.01668,11.60226 17.05462,9.47111 3.67215,-1.9381 14.65007,-13.31212 15.78939,-16.3591 1.45253,-3.8846 -0.68158,-7.41465 -10.08146,-16.67579 l -8.47419,-8.34911 8.81247,-8.88166 c 4.84687,-4.88491 9.23256,-10.0085 9.746,-11.38575 1.41606,-3.79849 -0.66056,-7.46282 -8.48527,-14.972836 C 407.53217,90.455621 406.16575,89.6 402.95146,89.6 c -3.33628,0 -4.59267,0.890328 -13.13211,9.305925 l -9.44286,9.305915 -9.47186,-9.305915 C 362.27747,90.429912 361.09717,89.6 357.66967,89.6 c -3.38376,0 -4.53909,0.775987 -11.461,7.697902 -6.92192,6.921918 -7.6979,8.077238 -7.6979,11.460998 0,3.42819 0.83036,4.60827 9.33019,13.25966 l 9.33019,9.49657 -16.71889,16.69718 -16.71888,16.6972 -22.24962,-22.24963 -22.24962,-22.24962 14.62292,-15.00002 c 8.04262,-8.250003 14.97307,-15.933687 15.40099,-17.074848 1.24405,-3.3175 -0.91524,-6.919787 -8.63448,-14.404722 -6.30128,-6.110006 -7.65098,-6.976824 -10.86345,-6.976824 -3.40858,0 -4.74113,1.058981 -18.82585,14.960997 L 255.77666,96.875838 240.70287,81.914843 C 226.44311,67.761778 225.42188,66.953846 221.79234,66.953846 c -3.49113,0 -4.52681,0.702231 -11.49762,7.795773 -6.81732,6.937366 -7.66087,8.203389 -7.66087,11.497617 0,3.455957 0.99591,4.705257 14.99332,18.808204 l 14.99331,15.10635 -22.37745,22.37745 -22.37745,22.37746 -16.45479,-16.4548 -16.4548,-16.45479 7.92694,-8.1574 C 176.86178,109.46444 176.9515,108.46329 165.27972,97.104949 158.50667,90.513783 157.12687,89.6 153.94734,89.6 c -3.24067,0 -4.62067,0.973991 -13.15922,9.287719 l -9.53889,9.287711 -9.46207,-9.287711 C 113.22546,90.483798 111.97267,89.6 108.62165,89.6 c -3.31171,0 -4.52395,0.820522 -11.460997,7.757576 -6.937054,6.937054 -7.757576,8.149294 -7.757576,11.460994 0,3.35102 0.883798,4.60382 9.287719,13.16551 l 9.287714,9.46207 -9.287714,9.53889 c -8.297304,8.52169 -9.287719,9.9231 -9.287719,13.14189 0,3.10769 0.913657,4.55513 6.646154,10.52899 7.408809,7.72076 11.623849,10.11303 15.333539,8.70259 1.30988,-0.49801 6.45656,-4.78334 11.43709,-9.52295 l 9.05549,-8.61747 16.42221,16.42221 16.42221,16.4222 -22.27233,22.27235 -22.27235,22.27233 -15.13985,-14.86071 c -14.205471,-13.94355 -15.375099,-14.8624 -18.95151,-14.8882 -3.460884,-0.025 -4.525554,0.68639 -11.569231,7.73008 -6.92153,6.92153 -7.757576,8.15445 -7.757576,11.4402 0,3.42703 1.037563,4.73384 14.947956,18.82704 L 96.652836,256 81.704879,271.14441 c -13.910393,14.0932 -14.947956,15.40001 -14.947956,18.82704 0,3.28575 0.836046,4.51867 7.757576,11.4402 7.043239,7.04324 8.112292,7.75758 11.609745,7.75758 3.62414,0 4.758067,-0.86987 19.155736,-14.69484 l 15.30357,-14.69484 22.06536,22.08173 22.06536,22.08171 -16.41946,16.41947 -16.41946,16.41945 -9.05549,-8.61747 c -4.98053,-4.73961 -10.12721,-9.02494 -11.43709,-9.52295 -3.75777,-1.42871 -7.9862,0.99792 -15.333539,8.79972 -9.537499,10.12742 -9.418734,11.18731 2.641565,23.57375 l 9.287714,9.53889 -9.287714,9.46207 c -8.403921,8.56169 -9.287719,9.81449 -9.287719,13.16551 0,3.3117 0.820522,4.52394 7.757576,11.46099 6.937047,6.93706 8.149287,7.75758 11.460997,7.75758 3.35102,0 4.60381,-0.8838 13.16551,-9.28772 l 9.46207,-9.28771 9.53889,9.28771 c 8.53855,8.31373 9.91855,9.28772 13.15922,9.28772 3.17953,0 4.55933,-0.91378 11.33238,-7.50495 8.09934,-7.88183 9.83975,-11.33128 7.73449,-15.32961 -0.65828,-1.25023 -4.9915,-6.16468 -9.62938,-10.92101 l -8.43249,-8.64789 16.45662,-16.45662 16.45662,-16.45662 22.37745,22.37746 22.37745,22.37745 -14.99331,15.10635 c -13.99741,14.10294 -14.99332,15.35225 -14.99332,18.8082 0,3.29423 0.84355,4.56026 7.66087,11.49762 6.97081,7.09355 8.00649,7.79577 11.49762,7.79577 3.62954,0 4.65077,-0.80793 18.91053,-14.96099 z"
     id="path4620"
     inkscape:connector-curvature="0" />
  <path
     style="fill:#000000;fill-opacity:1;stroke-width:0.98461539"
     d="m 211.22613,436.40899 c -11.12725,-11.19289 -11.30274,-10.51005 7.62638,-29.67308 l 15.23404,-15.42231 -22.38037,-22.36449 c -12.3092,-12.30047 -22.81528,-22.36449 -23.34685,-22.36449 -0.53158,0 -8.60401,7.62816 -17.93874,16.95146 l -16.97226,16.95146 9.82353,9.98272 c 12.45206,12.65386 12.45419,12.6766 2.16265,23.14935 -10.70836,10.89691 -11.39551,10.84652 -24.05344,-1.76392 l -9.59569,-9.55969 -9.73015,9.55969 C 109.28089,424.40623 108.6278,424.458 97.995362,413.76284 87.44525,403.15047 87.486728,402.63683 99.92922,389.81424 l 9.54153,-9.83301 -9.54153,-9.57746 c -12.45931,-12.50624 -12.4717,-12.73286 -1.292602,-23.6445 5.415352,-5.28579 9.015732,-8.05158 10.481202,-8.05158 1.50374,0 5.4902,3.20598 12.21485,9.82338 l 9.98257,9.82338 17.44294,-17.46316 17.44294,-17.46314 -22.40688,-22.39101 c -12.32378,-12.31504 -22.82854,-22.39099 -23.34391,-22.39099 -0.51536,0 -7.63328,6.64616 -15.8176,14.76923 -8.184314,8.12308 -15.7345,14.82174 -16.778189,14.88589 -3.933786,0.24184 -5.042691,-0.45083 -12.482233,-7.797 C 64.433182,289.70244 64.191522,290.593 83.237689,271.51889 L 98.733841,256 83.237689,240.48111 c -19.048048,-19.07599 -18.801884,-18.16404 -7.843598,-29.05806 11.205928,-11.1402 10.665544,-11.27256 29.238639,7.16157 8.18432,8.12307 15.30224,14.76923 15.8176,14.76923 0.51537,0 11.02013,-10.07595 23.34391,-22.39099 l 22.40688,-22.39101 -17.44294,-17.46314 -17.44294,-17.46316 -9.98257,9.82338 c -5.91703,5.82267 -10.78254,9.82338 -11.94682,9.82338 -2.69064,0 -8.71213,-4.52629 -14.321648,-10.76542 -7.099479,-7.89633 -6.788802,-9.23295 4.865018,-20.93066 l 9.54153,-9.57747 -9.54153,-9.833 C 87.449249,109.32454 87.405194,108.76496 98.040245,98.192286 108.71357,87.581562 109.31852,87.630735 122.05523,100.1443 l 9.73015,9.55969 9.59569,-9.55969 c 12.61172,-12.564385 13.2633,-12.614897 24.01641,-1.861782 10.41351,10.413512 10.4043,10.514242 -2.12562,23.247222 l -9.82353,9.98272 16.97226,16.95146 c 9.33473,9.32331 17.40716,16.95146 17.93874,16.95146 0.53157,0 11.03765,-10.06402 23.34685,-22.36449 l 22.38037,-22.3645 -15.23404,-15.4223 c -18.96802,-19.202408 -18.80436,-18.560915 -7.5815,-29.717959 11.15801,-11.092564 10.56533,-11.237893 29.20659,7.161561 8.22983,8.123077 15.38266,14.769231 15.89518,14.769231 0.51251,0 7.56691,-6.646154 15.67645,-14.769231 18.0164,-18.046494 17.94661,-18.024828 27.75336,-8.615384 6.42039,6.16027 9.16972,10.077499 9.16972,13.064936 0,0.876423 -6.95789,8.671665 -15.46195,17.322756 l -15.46196,15.72927 22.84262,22.84261 22.84261,22.84261 17.23075,-17.20965 17.23076,-17.20966 -8.80689,-8.87605 c -10.02401,-10.10272 -11.43172,-12.6637 -9.2725,-16.86887 1.9769,-3.85013 10.86937,-12.772732 14.4652,-14.514249 4.39985,-2.130912 7.07269,-0.672794 16.94189,9.242339 l 8.79407,8.83501 8.38924,-8.31988 c 13.34522,-13.23489 14.94805,-13.471786 24.95624,-3.688503 6.66328,6.513543 8.9181,10.251703 7.97537,13.221973 -0.36673,1.15547 -4.80452,6.36498 -9.86176,11.57671 l -9.19497,9.47587 8.40511,8.31254 c 9.32092,9.21826 11.66389,12.73781 10.63585,15.97688 -0.88558,2.79022 -11.90171,14.26781 -15.46812,16.11608 -1.5746,0.81603 -3.65785,1.14279 -4.85774,0.76196 -1.15547,-0.36673 -6.36246,-4.80207 -11.5711,-9.85631 l -9.47026,-9.18953 -17.17309,17.19414 -17.17309,17.19415 22.88066,22.88066 22.88065,22.88066 14.03582,-13.97591 c 7.7197,-7.68676 15.31289,-14.62851 16.87377,-15.42611 3.91908,-2.00264 6.72699,-0.7577 13.72905,6.08701 6.67339,6.52341 8.91853,10.25037 7.97179,13.23326 -0.3687,1.16167 -7.32931,8.89337 -15.46801,17.18156 L 414.01466,256 l 14.79766,15.06943 c 8.1387,8.28819 15.09931,16.01989 15.46801,17.18156 0.94674,2.98289 -1.2984,6.70985 -7.97179,13.23326 -7.00206,6.84471 -9.80997,8.08965 -13.72905,6.08701 -1.56088,-0.7976 -9.15407,-7.73935 -16.87377,-15.42611 l -14.03582,-13.97591 -22.88065,22.88066 -22.88066,22.88066 17.17309,17.19415 17.17309,17.19414 9.47026,-9.18953 c 5.20864,-5.05424 10.41563,-9.48958 11.5711,-9.85631 1.19989,-0.38083 3.28314,-0.0541 4.85774,0.76196 3.60704,1.86933 14.58688,13.33954 15.48847,16.18021 0.97983,3.08714 -1.70565,7.03171 -11.16814,16.40438 l -7.89449,7.81955 9.19563,9.47655 c 5.05761,5.2121 9.49569,10.42193 9.86242,11.57739 0.99291,3.12837 -1.47323,7.02496 -8.76045,13.84178 -9.48808,8.87564 -10.72326,8.70414 -22.98166,-3.19089 l -9.55468,-9.27145 -9.53091,9.27145 c -12.52182,12.18093 -13.16336,12.22474 -23.70701,1.6189 -10.58037,-10.6428 -10.53217,-11.30818 1.72237,-23.78124 l 9.33004,-9.49641 -17.21092,-17.18984 -17.21091,-17.18984 -22.85405,22.85406 -22.85405,22.85404 15.47339,15.6646 c 8.51036,8.61555 15.47339,16.40563 15.47339,17.31132 0,3.04125 -2.71421,6.92419 -9.16972,13.11816 -9.80675,9.40945 -9.73696,9.43111 -27.75336,-8.61538 -8.10954,-8.12308 -15.16394,-14.76923 -15.67645,-14.76923 -0.51252,0 -7.66535,6.64615 -15.89518,14.76923 -18.68053,18.4382 -18.1296,18.30417 -29.25147,7.11668 z m 67.7181,-89.82706 22.63279,-22.64885 -22.88697,-22.88698 -22.88697,-22.88696 -22.88697,22.88696 -22.88698,22.88698 22.6328,22.64885 c 12.44803,12.45686 22.86155,22.64884 23.14115,22.64884 0.2796,0 10.69312,-10.19198 23.14115,-22.64884 z m -67.93847,-67.93846 22.6328,-22.64886 -22.88697,-22.88697 -22.88697,-22.88696 -22.88698,22.88696 -22.88696,22.88697 22.63279,22.64886 c 12.44803,12.45686 22.86154,22.64884 23.14115,22.64884 0.2796,0 10.69312,-10.19198 23.14114,-22.64884 z m 135.87693,0 22.63279,-22.64886 -22.88697,-22.88697 -22.88697,-22.88696 -22.88697,22.88696 -22.88697,22.88697 22.63279,22.64886 c 12.44803,12.45686 22.86155,22.64884 23.14115,22.64884 0.2796,0 10.69312,-10.19198 23.14115,-22.64884 z m -67.93846,-67.93847 22.63279,-22.64885 -22.88697,-22.88696 -22.88697,-22.88697 -22.88697,22.88697 -22.88698,22.88696 22.6328,22.64885 c 12.44803,12.45687 22.86155,22.64885 23.14115,22.64885 0.2796,0 10.69312,-10.19198 23.14115,-22.64885 z"
     id="path4622"
     inkscape:connector-curvature="0" />
  <path
     style="fill:#ffffff;fill-opacity:1;stroke-width:0.98461539"
     d="M 238.73371,510.96504 C 150.22798,504.69811 71.320832,453.35198 29.960285,375.11286 -5.32701,308.36213 -9.0298297,227.23736 20.043375,157.84408 44.062227,100.51477 88.208139,53.771128 144.04923,26.54121 184.21122,6.95693 224.92704,-1.2632927 270.23996,1.064237 354.42594,5.3885084 431.2656,51.709504 475.09088,124.55385 c 39.89379,66.30964 47.43429,147.76065 20.43097,220.69164 -8.66047,23.39035 -24.79361,51.4874 -41.4748,72.23143 -30.91627,38.44619 -77.90385,69.73383 -125.55139,83.60096 -28.49332,8.29257 -61.27966,11.90394 -89.76195,9.88716 z m 1.95204,-80.89357 15.17148,-14.97468 13.01908,12.85318 c 7.16049,7.06924 14.29729,13.80785 15.85955,14.97468 4.97711,3.71732 7.87344,2.89446 15.40507,-4.37673 7.33528,-7.08162 10.25588,-11.88314 9.07993,-14.92761 -0.40747,-1.05495 -7.28368,-8.73091 -15.28045,-17.05767 l -14.5396,-15.13959 22.16628,-22.16628 22.16629,-22.16628 16.70212,16.68045 16.70211,16.68044 -9.31341,9.59794 c -8.33119,8.58568 -9.31343,9.97959 -9.31343,13.21673 0,3.20603 0.88482,4.50363 7.75758,11.37637 6.87881,6.87882 8.16839,7.75758 11.38419,7.75758 3.24753,0 4.62285,-0.96912 13.15752,-9.27144 l 9.53091,-9.27146 9.55468,9.27146 c 12.68795,12.31184 13.56341,12.36936 24.51166,1.61056 7.01298,-6.89164 7.79577,-8.03475 7.79577,-11.38419 0,-3.36962 -0.88074,-4.6287 -9.27145,-13.25422 l -9.27145,-9.53091 9.27145,-9.55468 c 8.27701,-8.52987 9.27145,-9.94127 9.27145,-13.15907 0,-3.13461 -0.91267,-4.54564 -7.00259,-10.82619 -11.28576,-11.63905 -12.79259,-11.52175 -26.48949,2.06187 l -8.38439,8.31505 -16.71652,-16.73824 -16.71652,-16.73824 22.36064,-22.36065 22.36065,-22.36063 15.17697,14.9801 c 14.21179,14.02745 15.41498,14.98011 18.91928,14.98011 3.35782,0 4.53322,-0.7909 11.44022,-7.6979 6.907,-6.907 7.6979,-8.0824 7.6979,-11.44022 0,-3.50383 -0.95181,-4.70662 -14.93644,-18.87503 l -14.93644,-15.13273 14.93644,-15.21077 c 13.89253,-14.14768 14.93644,-15.46849 14.93644,-18.89839 0,-3.28955 -0.83096,-4.51857 -7.6979,-11.38552 -6.907,-6.907 -8.0824,-7.6979 -11.44022,-7.6979 -3.5043,0 -4.70749,0.95266 -18.91928,14.98011 l -15.17697,14.9801 -22.36065,-22.36063 -22.36064,-22.36065 16.68045,-16.70212 16.68043,-16.70212 9.59795,9.31342 c 8.64302,8.38683 9.9639,9.31343 13.2764,9.31343 3.27814,0 4.51624,-0.83777 11.37638,-7.6979 6.86596,-6.86596 7.6979,-8.0963 7.6979,-11.38419 0,-3.32288 -0.91403,-4.6259 -9.27145,-13.21721 l -9.27145,-9.53091 9.27145,-9.55467 c 8.29067,-8.54393 9.27145,-9.93749 9.27145,-13.17348 0,-3.20603 -0.88483,-4.50363 -7.75758,-11.376374 C 407.56669,90.478764 406.27711,89.6 403.06131,89.6 c -3.24753,0 -4.62285,0.969119 -13.15753,9.271444 l -9.53091,9.271456 -9.55467,-9.271456 C 362.27426,90.580777 360.88071,89.6 357.64472,89.6 c -3.20603,0 -4.50363,0.884829 -11.37637,7.757576 -6.87276,6.872744 -7.75758,8.170344 -7.75758,11.376374 0,3.23714 0.98224,4.63105 9.31343,13.21673 l 9.31341,9.59794 -16.70211,16.68044 -16.70212,16.68045 -22.38842,-22.38841 -22.3884,-22.38841 14.40972,-14.52789 c 7.92534,-7.990326 14.91877,-15.529949 15.54094,-16.754704 1.68671,-3.320278 -0.82405,-7.730427 -8.76629,-15.39802 -5.79918,-5.598631 -7.22997,-6.49823 -10.33533,-6.49823 -3.32251,0 -4.7937,1.167912 -18.81511,14.936437 L 255.77973,96.826721 240.647,81.890283 C 226.52523,67.951697 225.26642,66.953846 221.80435,66.953846 c -3.33297,0 -4.49537,0.797146 -11.44021,7.845385 -11.45323,11.623756 -11.56756,11.147344 7.24981,30.212019 l 14.98011,15.17697 -22.36424,22.36424 -22.36424,22.36424 -16.4061,-16.40612 -16.40612,-16.40611 8.61987,-9.1907 c 4.74092,-5.05488 9.04192,-10.26908 9.55778,-11.58712 1.43633,-3.66991 -0.46314,-6.97207 -8.48437,-14.749826 -10.25665,-9.945326 -11.28388,-9.846534 -23.87891,2.29653 l -9.6185,9.273346 -9.46207,-9.273346 C 109.84349,87.167913 108.44567,86.92754 99.483382,95.037941 c -3.305012,2.990869 -6.925134,6.920089 -8.04471,8.731599 -3.647816,5.9023 -2.952368,7.63843 7.286369,18.18995 l 9.321979,9.60674 -6.47853,6.33997 c -8.494293,8.3126 -12.165413,13.38461 -12.165413,16.80769 0,2.07899 1.628501,4.51395 6.405983,9.57834 7.77811,8.24521 11.49347,10.332 15.45054,8.67804 1.51966,-0.63519 6.79096,-4.87821 11.71399,-9.42893 l 8.95097,-8.27405 16.39761,16.39761 16.3976,16.3976 -22.37745,22.37746 -22.37745,22.37745 -15.10635,-14.99332 C 90.70065,203.77216 89.517329,202.83077 86.012116,202.83077 c -3.357436,0 -4.533639,0.7936 -11.497617,7.75758 -11.509847,11.50985 -11.628064,11.10131 9.365633,32.3655 L 96.760333,256 83.880132,269.04615 c -20.986268,21.25667 -20.84512,20.76667 -9.305959,32.30584 11.465442,11.46544 10.91371,11.59125 30.361027,-6.92374 l 15.48326,-14.74097 22.15066,22.1251 22.15065,22.12512 -16.40507,16.40506 -16.40506,16.40507 -9.67424,-9.01996 c -8.75094,-8.15914 -10.03894,-9.01998 -13.4957,-9.01998 -3.45912,0 -4.55704,0.73558 -11.579047,7.75758 -6.274942,6.27494 -7.757576,8.32802 -7.757576,10.74235 0,3.37743 4.372679,9.31788 13.152533,17.86821 l 5.49644,5.35275 -9.324488,9.60934 c -10.241432,10.55429 -10.936854,12.29001 -7.28889,18.19254 1.119576,1.81151 4.739698,5.74073 8.04471,8.7316 8.962288,8.1104 10.360108,7.87003 22.303778,-3.83541 l 9.46207,-9.27335 9.6185,9.27335 c 12.51295,12.06393 13.64058,12.18967 23.55841,2.6272 7.61248,-7.33973 10.08735,-11.18495 9.27699,-14.41367 -0.29541,-1.17702 -4.61308,-6.48295 -9.59482,-11.79097 l -9.05772,-9.65092 16.4075,-16.40749 16.40749,-16.4075 22.36424,22.36424 22.36424,22.36424 -14.98011,15.17697 c -18.81737,19.06468 -18.70304,18.58826 -7.24981,30.21202 6.94484,7.04824 8.10724,7.84538 11.44021,7.84538 3.46249,0 4.72177,-0.99872 18.8814,-14.97468 z"
     id="path4626"
     inkscape:connector-curvature="0" />
</svg>
